<svg xmlns="http://www.w3.org/2000/svg" xmlns:xlink="http://www.w3.org/1999/xlink" width="1185" height="1000" viewBox="0 0 1185 1000">
  <defs>
    <linearGradient id="linear-gradient" x1="0.5" y1="1" x2="0.5" gradientUnits="objectBoundingBox">
      <stop offset="0" stop-color="gray" stop-opacity="0.251"/>
      <stop offset="0.54" stop-color="gray" stop-opacity="0.122"/>
      <stop offset="1" stop-color="gray" stop-opacity="0.102"/>
    </linearGradient>
  </defs>
  <g id="forgot_password" data-name="forgot password" transform="translate(-695 -40)">
    <text id="oops_forgot_password" data-name="oops! forgot password" transform="translate(1330 86)" fill="#fff" font-size="48" font-family="Montserrat-SemiBold, Montserrat" font-weight="600"><tspan x="0" y="0">Oops! Forgot Password</tspan></text>
    <g id="undraw_forgot_password_gi2d" transform="translate(695.007 190.353)">
      <g id="Group_673" data-name="Group 673" transform="translate(875.903 499.57)" opacity="0.1">
        <path id="Path_298" data-name="Path 298" d="M931.846,619.259s-81.969-10.644-20.838,122.022c0,0,55.71-23.873,57.929-77.72a42.847,42.847,0,0,0-35.93-44.135Z" transform="translate(-888.357 -516.879)" fill="#6c63ff"/>
        <path id="Path_299" data-name="Path 299" d="M932.039,619.06s18.556,73.973-21.979,122.232" transform="translate(-887.346 -516.879)" fill="none" stroke="#535461" stroke-miterlimit="10" stroke-width="1"/>
        <path id="Path_300" data-name="Path 300" d="M909,750.667s29.514-72.738,84.628-99.72a118.946,118.946,0,0,0,54.015-52.434,200.039,200.039,0,0,0,13.533-33.983" transform="translate(-887.395 -519.42)" fill="none" stroke="#535461" stroke-miterlimit="10" stroke-width="2"/>
        <path id="Path_301" data-name="Path 301" d="M1089.07,549.343c-5.746,7.221-35.48,17.792-35.48,17.792s3.579-31.4,9.325-38.567a16.746,16.746,0,1,1,26.165,20.806Z" transform="translate(-880.658 -521.428)" fill="#6c63ff"/>
        <path id="Path_302" data-name="Path 302" d="M1079.5,604.216c-8.75,2.941-39.436-4.375-39.436-4.375s20.042-24.365,28.792-27.306a16.746,16.746,0,1,1,10.644,31.68Z" transform="translate(-881.289 -519.105)" fill="#6c63ff"/>
        <path id="Path_303" data-name="Path 303" d="M1026.3,668.827c-9.032-1.873-31.837-23.684-31.837-23.684s29.6-10.916,38.64-9.043a16.746,16.746,0,0,1-6.8,32.717Z" transform="translate(-883.414 -516.095)" fill="#6c63ff"/>
        <path id="Path_304" data-name="Path 304" d="M975.455,708.728c-9.22-.324-35.385-17.96-35.385-17.96s27.337-15.783,36.557-15.448a16.746,16.746,0,0,1-1.172,33.4Z" transform="translate(-885.948 -514.258)" fill="#6c63ff"/>
        <path id="Path_305" data-name="Path 305" d="M1012.774,579.889c1.183,9.158,21.162,33.564,21.162,33.564s13.156-28.677,11.983-37.834a16.746,16.746,0,1,0-33.146,4.27Z" transform="translate(-882.575 -519.635)" fill="#6c63ff"/>
        <path id="Path_306" data-name="Path 306" d="M953.79,627.54c3.862,8.373,30.236,25.694,30.236,25.694s3.977-31.3.115-39.676a16.745,16.745,0,1,0-30.351,13.993Z" transform="translate(-885.403 -517.635)" fill="#6c63ff"/>
        <path id="Path_307" data-name="Path 307" d="M902.66,681.366c2.386,8.917,25.464,30.435,25.464,30.435s9.21-30.173,6.813-39.09a16.745,16.745,0,1,0-32.277,8.655Z" transform="translate(-887.733 -515.008)" fill="#6c63ff"/>
        <path id="Path_308" data-name="Path 308" d="M1089.07,549.343c-5.746,7.221-35.48,17.792-35.48,17.792s3.579-31.4,9.325-38.567a16.746,16.746,0,1,1,26.165,20.806Z" transform="translate(-880.658 -521.428)" opacity="0.25"/>
        <path id="Path_309" data-name="Path 309" d="M1079.5,604.216c-8.75,2.941-39.436-4.375-39.436-4.375s20.042-24.365,28.792-27.306a16.746,16.746,0,1,1,10.644,31.68Z" transform="translate(-881.289 -519.105)" opacity="0.25"/>
        <path id="Path_310" data-name="Path 310" d="M1026.3,668.827c-9.032-1.873-31.837-23.684-31.837-23.684s29.6-10.916,38.64-9.043a16.746,16.746,0,0,1-6.8,32.717Z" transform="translate(-883.414 -516.095)" opacity="0.25"/>
        <path id="Path_311" data-name="Path 311" d="M975.455,708.728c-9.22-.324-35.385-17.96-35.385-17.96s27.337-15.783,36.557-15.448a16.746,16.746,0,0,1-1.172,33.4Z" transform="translate(-885.948 -514.258)" opacity="0.25"/>
        <path id="Path_312" data-name="Path 312" d="M1012.774,579.889c1.183,9.158,21.162,33.564,21.162,33.564s13.156-28.677,11.983-37.834a16.746,16.746,0,1,0-33.146,4.27Z" transform="translate(-882.575 -519.635)" opacity="0.25"/>
        <path id="Path_313" data-name="Path 313" d="M953.79,627.54c3.862,8.373,30.236,25.694,30.236,25.694s3.977-31.3.115-39.676a16.745,16.745,0,1,0-30.351,13.993Z" transform="translate(-885.403 -517.635)" opacity="0.25"/>
        <path id="Path_314" data-name="Path 314" d="M902.66,681.366c2.386,8.917,25.464,30.435,25.464,30.435s9.21-30.173,6.813-39.09a16.745,16.745,0,1,0-32.277,8.655Z" transform="translate(-887.733 -515.008)" opacity="0.25"/>
        <path id="Path_315" data-name="Path 315" d="M946.56,782.287s29.514-72.738,84.628-99.719a118.945,118.945,0,0,0,53.983-52.445A200.017,200.017,0,0,0,1098.7,596.14" transform="translate(-885.645 -517.947)" fill="none" stroke="#535461" stroke-miterlimit="10" stroke-width="2"/>
        <path id="Path_316" data-name="Path 316" d="M1126.58,580.872c-5.746,7.222-35.48,17.792-35.48,17.792s3.579-31.4,9.325-38.567A16.745,16.745,0,0,1,1126.59,580.9Z" transform="translate(-878.911 -519.885)" fill="#6c63ff"/>
        <path id="Path_317" data-name="Path 317" d="M1117.026,635.785c-8.75,2.941-39.436-4.375-39.436-4.375s20.042-24.365,28.792-27.306a16.746,16.746,0,0,1,10.644,31.68Z" transform="translate(-879.54 -517.602)" fill="#6c63ff"/>
        <path id="Path_318" data-name="Path 318" d="M1063.828,700.467c-9.032-1.873-31.837-23.684-31.837-23.684s29.6-10.916,38.64-9.043a16.746,16.746,0,0,1-6.8,32.717Z" transform="translate(-881.665 -514.621)" fill="#6c63ff"/>
        <path id="Path_319" data-name="Path 319" d="M1012.975,740.317c-9.221-.324-35.385-17.96-35.385-17.96s27.337-15.762,36.557-15.437a16.745,16.745,0,0,1-1.172,33.4Z" transform="translate(-884.2 -512.786)" fill="#6c63ff"/>
        <path id="Path_320" data-name="Path 320" d="M1050.294,611.529c1.183,9.158,21.162,33.564,21.162,33.564s13.156-28.677,11.983-37.834a16.745,16.745,0,1,0-33.146,4.27Z" transform="translate(-880.826 -518.16)" fill="#6c63ff"/>
        <path id="Path_321" data-name="Path 321" d="M991.28,659.013c3.862,8.373,30.236,25.694,30.236,25.694s3.977-31.3.115-39.676a16.745,16.745,0,0,0-30.351,13.993Z" transform="translate(-883.614 -516.078)" fill="#6c63ff"/>
        <path id="Path_322" data-name="Path 322" d="M940.164,712.891c2.386,8.917,25.464,30.435,25.464,30.435s9.21-30.173,6.813-39.09a16.746,16.746,0,0,0-32.277,8.655Z" transform="translate(-885.958 -513.439)" fill="#6c63ff"/>
      </g>
      <path id="Path_323" data-name="Path 323" d="M63.3,474.07c18.169,77.657,56.631,144.786,117.417,177.324,126.324,67.62,411.217,32.748,623.843-7.326a486.886,486.886,0,0,0,276.855-158.245Z" transform="translate(-50.898 -24.065)" fill="#fff" opacity="0.1"/>
      <path id="Path_324" data-name="Path 324" d="M1176.982,128.572H1060.318a10.084,10.084,0,0,1,0-20.168h20.168a10.084,10.084,0,1,1,0-20.168h-14.4a10.084,10.084,0,1,1,0-20.168h60.891c-13.512-6.28-29.3-10.749-47.494-13.093C913.449,33.645,854.17,47.754,833.259,62.3c-25.8,17.9-54.58,31.063-85.339,37.405-102.451,21.11-294.03,46.542-467.671-8.163C193.947,64.332,129.8,110.3,91.36,187.076H1197.233c-1.444-22.313-5.767-42.91-13.7-60.954A10.026,10.026,0,0,1,1176.982,128.572Z" transform="translate(-49.59 -44.1)" fill="#fff" opacity="0.1"/>
      <path id="Path_325" data-name="Path 325" d="M53.952,319.2a513.939,513.939,0,0,0,4.532,135.492L1082.764,492.15a481.429,481.429,0,0,0,71.168-108.532Zm405.116,96.653H438.9a10.084,10.084,0,1,1,0,20.168H322.236a10.084,10.084,0,1,1,0-20.168H342.4a10.084,10.084,0,1,1,0-20.168H328a10.084,10.084,0,1,1,0-20.168H444.666a10.084,10.084,0,0,1,0,20.168h14.4a10.084,10.084,0,1,1,0,20.168Z" transform="translate(-51.45 -31.281)" fill="#fff" opacity="0.1"/>
      <path id="Path_326" data-name="Path 326" d="M1199.026,181.38,80.751,208.591c-13.6,34.967-22.565,74.5-26.751,115.471H1179.434a477.734,477.734,0,0,0,16.254-73.607C1199.037,226.373,1200.376,203.076,1199.026,181.38Zm-918,89.138H260.859a10.084,10.084,0,1,1,0,20.168H144.2a10.084,10.084,0,1,1,0-20.168h20.168a10.084,10.084,0,0,1,0-20.168h-14.4a10.084,10.084,0,0,1,0-20.168H266.626a10.084,10.084,0,1,1,0,20.168h14.4a10.084,10.084,0,1,1,0,20.168Z" transform="translate(-51.331 -37.703)" fill="#fff" opacity="0.1"/>
      <path id="Path_327" data-name="Path 327" d="M1027.125,892.091S980.489,636.3,891.559,594.8c-75.355-35.2-156.843-58.923-180.014-65.36A100.064,100.064,0,0,0,699.6,513.852c-31.67-33.062-50.7-32.444-53.774-32.036a161.008,161.008,0,0,1-3.14-19.885c-.094-1.047-.188-2.02-.272-3.056l.272-.136q-.283-2.967-.5-6.123a157.617,157.617,0,0,0,35.364-25.757c.136.45.251.9.4,1.361Q712.184,399.282,745,368.773c6.28-5.871,12.873-12.245,15.008-20.524a30.119,30.119,0,0,0,.785-8.708c.283-6.28-1.2-12.7-1.455-19.058a21.818,21.818,0,0,1,.251-3.014c1.465-10.414,8.708-18.964,14.652-27.7a130.636,130.636,0,0,0,22.219-74.79,126.637,126.637,0,0,0-5.233-37.677c-4.636-15.511-14.286-31.806-30.351-35.2-6.217-1.308-12.674-.492-19.017-.9-26.259-1.675-45.914-23.025-66.856-38.672a176.467,176.467,0,0,0-87.474-33.951c-9.89-1.047-20.105-1.12-29.514,2.02-21.131,7.033-33.962,28.75-54.318,37.677-15.05,6.635-32.444,5.557-48.143,10.539-23.37,7.431-43.2,31.4-43.727,56.024v3.192c-.262,12.444,4.186,25.118,4.542,37.855q0,1.727.052,3.464c-.115,13.752-1.758,27.546-6.771,40.472-2.7,6.96-6.175,15.019-5.61,21.978-.314,4.26.513,8.258,3.475,11.513l5.055-4.458a152.807,152.807,0,0,0-2.543,27.818c0,47.034,21.392,89.149,55.135,117.491q.293,4.7.565,10.068c.8,15.511,1.423,34.967,1.245,56.171l-49.357,45.37L290.731,603.336s-116.046,24.511-91.054,187.539L211.608,892.1H317.555l-.241.534H474.565l.094-.534H848.8l-.073.534h14.652V892.1ZM646.761,484.412a108.76,108.76,0,0,1,7.535,20.723,84.89,84.89,0,0,1-8.132-21.853l.157.283ZM466.935,505.344q0,2.993-.1,6.039l-.251.356a51.289,51.289,0,0,1,.356-6.447Z" transform="translate(-44.708 -42.989)" fill="url(#linear-gradient)"/>
      <path id="Path_328" data-name="Path 328" d="M677.244,519,656.312,718.9,544.327,754.488s-145.477-27.211-107.8-105.706c26.8-55.836,26.06-155.618,23.4-208.576-1.047-21.5-2.47-35.281-2.47-35.281s190.48-166.408,174.781-16.745c-3.035,28.98-3.213,51.639-1.528,69.347C637.777,531.249,677.244,519,677.244,519Z" transform="translate(-33.798 -30.976)" fill="#fce2d0"/>
      <path id="Path_329" data-name="Path 329" d="M677.244,519,656.312,718.9,544.327,754.488s-145.477-27.211-107.8-105.706c26.8-55.836,26.06-155.618,23.4-208.576-1.047-21.5-2.47-35.281-2.47-35.281s190.48-166.408,174.781-16.745c-3.035,28.98-3.213,51.639-1.528,69.347C637.777,531.249,677.244,519,677.244,519Z" transform="translate(-33.798 -30.976)" opacity="0.03"/>
      <path id="Path_330" data-name="Path 330" d="M631.031,385.18c-3.035,28.98-3.213,51.639-1.528,69.347A151.829,151.829,0,0,1,458.72,437.206c-1.047-21.5-2.47-35.281-2.47-35.281S646.73,235.517,631.031,385.18Z" transform="translate(-32.588 -31.116)" opacity="0.1"/>
      <circle id="Ellipse_109" data-name="Ellipse 109" cx="151.756" cy="151.756" r="151.756" transform="translate(372.378 132.196)" fill="#fce2cf"/>
      <circle id="Ellipse_110" data-name="Ellipse 110" cx="151.756" cy="151.756" r="151.756" transform="translate(372.378 132.196)" fill="#fce2cf" opacity="0.03"/>
      <path id="Path_331" data-name="Path 331" d="M1011.952,873.336H224.913L213.4,773.909c-24.072-160.129,87.914-184.2,87.914-184.2l122.452-56.516,48.667-45.527c-15.7,59.656,103.09,183.677,103.09,183.677h0a28.146,28.146,0,0,0,2.166-2.25c3.2-3.5,10.853-12.245,28.771-33.952,6.405-7.776,14.139-17.206,23.454-28.656,44.794-55.051,21.811-120.1,14.945-133.545l-.429-.837c-.262-.481-.461-.869-.618-1.141a1.7,1.7,0,0,0-.157-.283,1.667,1.667,0,0,1-.115-.209l57.563,45s2.208.586,6.28,1.737c22.4,6.28,101.08,29.629,173.735,64.2C966.949,622.153,1011.952,873.336,1011.952,873.336Z" transform="translate(-44.062 -24.233)" fill="#fff"/>
      <path id="Path_332" data-name="Path 332" d="M728.543,633.672c-9.419-9.419-73.262-20.932-73.262-20.932,2.093,25.118-75.355,63.842-75.355,63.842l5.756,196.76H548.55l-6.28-176.874,17.792-25.118h0l2.166-2.25A345.392,345.392,0,0,0,591,635.148c6.405-7.776,14.14-17.206,23.454-28.656,44.794-55.051,21.811-120.1,14.945-133.545l-.429-.837c-.251-.492-.45-.869-.617-1.141a1.7,1.7,0,0,0-.157-.283,1.66,1.66,0,0,1-.115-.209h0s18.839-4.186,52.33,31.4a98.107,98.107,0,0,1,11.513,15.343C719.134,560.882,736.842,641.972,728.543,633.672Z" transform="translate(-30.758 -23.695)" fill="#f57921"/>
      <path id="Path_333" data-name="Path 333" d="M728.543,633.672c-9.419-9.419-73.262-20.932-73.262-20.932,2.093,25.118-75.355,63.842-75.355,63.842l5.756,196.76H548.55l-6.28-176.874,17.792-25.118h0l2.166-2.25A345.392,345.392,0,0,0,591,635.148c6.405-7.776,14.14-17.206,23.454-28.656,44.794-55.051,21.811-120.1,14.945-133.545l-.429-.837c-.251-.492-.45-.869-.617-1.141a1.7,1.7,0,0,0-.157-.283,1.66,1.66,0,0,1-.115-.209h0s18.839-4.186,52.33,31.4a98.107,98.107,0,0,1,11.513,15.343C719.134,560.882,736.842,641.972,728.543,633.672Z" transform="translate(-37.073 -23.695)" fill="#f57921" opacity="0.1"/>
      <path id="Path_334" data-name="Path 334" d="M313.25,703.4s49.19,100.473,51.806,159.606" transform="translate(-39.251 -13.38)" opacity="0.1"/>
      <path id="Path_335" data-name="Path 335" d="M774.429,714.31,760.3,816.353h14.129Z" transform="translate(35.426 33.284)" opacity="0.1"/>
      <path id="Path_336" data-name="Path 336" d="M323.75,875.78l77.971-177.4s21.978-41.864,27.211-83.728,33.491-107.8,33.491-107.8,70.122-88.961,102.566-76.4-28.258,59.656-28.258,59.656,88.961,34.538,28.258,137.1-61.749,83.727-61.749,83.727L473.413,875.78Z" transform="translate(-38.762 -26.154)" opacity="0.1"/>
      <path id="Path_337" data-name="Path 337" d="M321.75,875.781l77.971-177.4s21.978-41.864,27.211-83.728c3.328-26.615,15.961-62.963,24.721-85.915a131.726,131.726,0,0,1,24.825-40.817c22.669-25.37,63.842-66.281,86.511-57.489,32.444,12.559-28.258,59.656-28.258,59.656s88.961,34.538,28.258,137.1-61.749,83.728-61.749,83.728L471.413,875.76Z" transform="translate(-38.855 -26.155)" fill="#fce2d0"/>
      <circle id="Ellipse_111" data-name="Ellipse 111" cx="3.14" cy="3.14" r="3.14" transform="translate(567.568 195.515)" fill="#fff" opacity="0.15"/>
      <circle id="Ellipse_112" data-name="Ellipse 112" cx="3.14" cy="3.14" r="3.14" transform="translate(552.916 201.795)" fill="#fff" opacity="0.15"/>
      <path id="Path_338" data-name="Path 338" d="M451.457,134.906c15.144-4.9,31.953-3.841,46.479-10.351,19.645-8.812,32.026-30.142,52.413-37.049,9.084-3.077,18.943-2.962,28.478-1.978a168.575,168.575,0,0,1,84.418,33.355c20.21,15.374,39.174,36.338,64.512,37.981,6.123.4,12.35-.408,18.347.879,15.531,3.328,24.836,19.331,29.3,34.538a130.05,130.05,0,0,1-16.39,107.381c-5.735,8.582-12.727,16.986-14.14,27.211-1.381,10.026,2.889,20.419.4,30.236-2.093,8.132-8.373,14.391-14.485,20.157q-31.659,29.943-64.711,58.348c-11.45-36.38,5.348-75.554,2.732-113.6-1.047-14.82-6.28-31-19.352-37.991-12.235-6.531-27.871-3.14-40.252-9.419-13.815-6.96-19.488-23.444-29.933-34.852-17.792-19.467-48.677-21.978-73.555-13.187s-45.213,26.877-64.889,44.512l-35.762,32.078c-6.981-7.87-1.685-19.948,2.093-29.786,5.631-14.747,6.866-30.644,6.489-46.3-.3-12.559-4.636-24.961-4.385-37.185C409.771,165.77,428.9,142.2,451.457,134.906Z" transform="translate(-35.132 -42.198)" opacity="0.1"/>
      <path id="Path_339" data-name="Path 339" d="M451.457,131.906c15.144-4.9,31.953-3.841,46.479-10.351,19.645-8.812,32.026-30.142,52.413-37.049,9.084-3.077,18.943-2.962,28.478-1.978a168.575,168.575,0,0,1,84.418,33.355c20.21,15.374,39.174,36.338,64.512,37.981,6.123.4,12.35-.408,18.347.879,15.531,3.328,24.836,19.331,29.3,34.538a130.05,130.05,0,0,1-16.39,107.381c-5.735,8.582-12.727,16.986-14.14,27.211-1.381,10.026,2.889,20.419.4,30.236-2.093,8.132-8.373,14.391-14.485,20.157q-31.659,29.943-64.711,58.348c-11.45-36.38,5.348-75.554,2.732-113.6-1.047-14.82-6.28-31-19.352-37.991-12.235-6.531-27.871-3.14-40.252-9.419-13.815-6.96-19.488-23.444-29.933-34.852-17.792-19.467-48.677-21.978-73.555-13.187s-45.213,26.877-64.889,44.512l-35.762,32.078c-6.981-7.87-1.685-19.948,2.093-29.786,5.631-14.747,6.866-30.644,6.489-46.3-.3-12.559-4.636-24.961-4.385-37.185C409.771,162.77,428.9,139.2,451.457,131.906Z" transform="translate(-35.132 -42.337)" fill="#002173"/>
    </g>
  </g>
</svg>
