<svg xmlns="http://www.w3.org/2000/svg" width="57.161" height="52.14" viewBox="0 0 57.161 52.14">
  <g id="googlead" style="isolation: isolate">
    <path id="Path_17" data-name="Path 17" d="M33.72,23.39A10.476,10.476,0,0,0,19.4,27.226L1.423,58.367A10.482,10.482,0,1,0,19.577,68.848L37.556,37.708A10.493,10.493,0,0,0,33.72,23.39Z" transform="translate(0 -21.969)" fill="#f4dc4d"/>
    <path id="Path_18" data-name="Path 18" d="M20.975,300.99A10.482,10.482,0,1,0,5.61,312.781a10.476,10.476,0,0,0,15.365-11.79Z" transform="translate(-0.35 -262.065)" fill="#a0ed83"/>
    <path id="Path_19" data-name="Path 19" d="M196.1,58.268,178.123,27.127a10.482,10.482,0,1,0-18.155,10.482l17.979,31.141A10.482,10.482,0,1,0,196.1,58.268Z" transform="translate(-140.343 -21.87)" fill="#86bff2"/>
    <path id="Path_20" data-name="Path 20" d="M20.975,300.99A10.482,10.482,0,1,0,5.61,312.781a10.476,10.476,0,0,0,15.365-11.79Z" transform="translate(-0.35 -262.065)" fill="#a0ed83"/>
  </g>
</svg>
