<?xml version="1.0" encoding="utf-8"?>
<!-- Generator: Adobe Illustrator 25.2.0, SVG Export Plug-In . SVG Version: 6.00 Build 0)  -->
<svg version="1.1" id="Layer_1" xmlns="http://www.w3.org/2000/svg" xmlns:xlink="http://www.w3.org/1999/xlink" x="0px" y="0px"
	 viewBox="0 0 1920 1080" enable-background="new 0 0 1920 1080" xml:space="preserve">
<g id="login" transform="translate(0 0)">
	<path id="Path_114" fill="#F2F2F2" d="M1756.689,658.129c-1.42,2.731-2.904,5.415-4.431,8.084
		c-58.644,102.169-195.068,165.621-425.143,132.033c-130.634-19.965-186.267,53.304-240.139,128.351
		c-0.921,1.296-1.841,2.591-2.778,3.887c-56.41,78.699-112.263,157.613-251.922,131.383
		c-148.052-23.409-239.421-143.618-253.559-271.959c-0.172-1.564-0.327-3.136-0.469-4.697
		c-7.943-83.209,16.605-169.367,79.23-234.412c37.829-39.279,91.573-60.144,147.051-59.489c16.704,0.312,33.401-0.927,49.875-3.698
		c3.636-0.64,7.164-1.341,10.596-2.138c70.679-16.151,103.247-64.17,123.221-122.769c0.468-1.389,0.936-2.778,1.389-4.182
		c45.866-139.748,24.657-335.892,274.01-307.04c223.129,16.449,386.878,140.17,467.2,282.914c0.797,1.435,1.591,2.872,2.372,4.308
		c22.077,39.607,37.83,82.419,46.692,126.889c0.5,2.496,0.953,4.994,1.374,7.49C1792.615,539.375,1785.17,603.809,1756.689,658.129z
		"/>
	<path id="Path_115" fill="#FFFFFF" d="M1733.187,338.704c-16.009,19.026-34.046,36.247-53.792,51.357
		c-76.921,58.99-174.346,90.98-270.459,97.691c-49.394,3.472-99.032,0.101-147.503-10.018
		c-49.314-10.33-96.35-28.527-141.902-49.781c-44.305-20.677-87.297-43.992-131.305-65.247c0.469-1.389,0.936-2.778,1.389-4.182
		c47.986,23.094,94.989,48.543,143.542,70.549c45.74,20.74,93.086,37.656,142.604,46.708c49.405,8.969,99.826,10.945,149.782,5.868
		c95.851-9.645,193.358-45.006,267.043-108.272c13.836-11.877,26.627-24.921,38.233-38.984
		C1731.611,335.831,1732.407,337.266,1733.187,338.704z"/>
	<path id="Path_116" fill="#F4AA76" d="M1400.163,17.865c-0.112,0-0.223,0.004-0.335,0.011
		c-118.278,7.41-210.928,106.135-210.928,224.76s92.65,217.351,210.927,224.758c1.429,0.096,2.833-0.407,3.873-1.39
		c1.038-0.967,1.624-2.323,1.619-3.74V23.01c-0.01-2.841-2.316-5.139-5.157-5.139L1400.163,17.865z"/>
	<path id="Path_117" fill="#F4AA76" d="M1581.002,392.729c-1.754-0.001-3.436-0.697-4.677-1.936l-152.932-152.931
		c-1.24-1.234-1.934-2.913-1.93-4.663V23.01c-0.007-1.824,0.748-3.567,2.082-4.809c1.338-1.258,3.137-1.904,4.969-1.787
		c119.047,7.459,212.302,106.828,212.302,226.226c0.001,54.239-19.448,106.681-54.815,147.804c-1.202,1.386-2.924,2.213-4.757,2.284
		C1581.164,392.728,1581.082,392.729,1581.002,392.729z"/>
	<path id="Path_118" fill="#F57921" d="M1428.089,468.873c-1.688-0.001-3.312-0.644-4.546-1.798
		c-1.336-1.244-2.092-2.988-2.085-4.815V272.619c0-3.646,2.957-6.603,6.603-6.603c1.751,0,3.43,0.696,4.667,1.933l133.45,133.452
		c2.582,2.585,2.58,6.774-0.005,9.356c-0.079,0.079-0.16,0.156-0.243,0.231c-37.994,34.206-86.415,54.595-137.432,57.872
		C1428.362,468.87,1428.224,468.873,1428.089,468.873z"/>
	<path id="Path_119" fill="#FFFFFF" d="M1781.254,473.085c-21.411,37.968-51.639,71.458-86.252,98.003
		c-76.921,58.99-174.346,90.98-270.459,97.691c-49.394,3.472-99.033,0.101-147.505-10.018
		c-49.314-10.33-96.35-28.527-141.902-49.781c-46.38-21.645-91.339-46.193-137.517-68.242
		c-46.134-22.036-93.54-40.824-143.212-53.122c3.636-0.64,7.164-1.341,10.596-2.138c3.245,0.843,6.481,1.717,9.706,2.622
		c97.129,27.155,182.852,80.665,274.049,122.004c45.74,20.74,93.086,37.656,142.604,46.708
		c49.405,8.968,99.826,10.941,149.781,5.863c95.851-9.645,193.358-45.006,267.043-108.272
		c29.168-24.932,53.474-55.042,71.693-88.812C1780.378,468.087,1780.836,470.586,1781.254,473.085z"/>
	<path id="Path_120" fill="#FFFFFF" d="M816.969,806.448c95.693,26.748,180.308,79.086,270.008,120.147
		c-0.921,1.296-1.841,2.591-2.778,3.887c-2.279-1.046-4.541-2.092-6.804-3.153c-46.38-21.645-91.339-46.193-137.517-68.242
		c-47.113-22.504-95.554-41.62-146.38-53.902c-70.257-16.923-142.835-22.085-214.781-15.277c-0.172-1.564-0.327-3.136-0.469-4.697
		C658.452,777.638,739.363,784.838,816.969,806.448z"/>
	<path id="Path_121" fill="#FFFFFF" d="M1201.585,957.021H521.036c-0.987,0-1.787-0.8-1.787-1.787s0.8-1.787,1.787-1.787h680.55
		c0.987,0,1.787,0.8,1.787,1.787C1203.373,956.221,1202.574,957.021,1201.585,957.021z"/>
	<circle id="Ellipse_40" fill="#FCE2CF" cx="796.326" cy="672.183" r="43.871"/>
	<path id="Path_122" fill="#FCE2CF" d="M960.48,981.745l1.023,21.876l-83.889,14.361l-1.512-32.282L960.48,981.745z"/>
	<path id="Path_123" fill="#3F67C9" d="M981.421,975.173l2.33,49.729l-0.894,0.042c-6.891,0.454-13.757-1.207-19.679-4.76
		c-5.355-3.412-8.439-8.14-8.681-13.31l0,0l-1.422-30.373L981.421,975.173z"/>
	<path id="Path_124" fill="#FCE2CF" d="M958.131,1017.74h21.894l10.417-84.467h-32.321L958.131,1017.74z"/>
	<path id="Path_125" fill="#3F67C9" d="M952.548,1010.589h43.126l0,0c15.176,0,27.478,12.302,27.478,27.479v0.894h-70.61
		L952.548,1010.589z"/>
	<path id="Path_126" fill="#FFDCC3" d="M751.391,997.279c9.064-5.49,11.961-17.289,6.47-26.353c-0.585-0.966-1.256-1.88-2.003-2.729
		l17.478-173.895l-41.632,2.911l-4.089,170.019c-7.519,7.549-7.493,19.765,0.056,27.283
		C733.99,1000.805,743.797,1001.948,751.391,997.279L751.391,997.279z"/>
	<path id="Path_127" fill="#FFFFFF" d="M773.131,824.442l-43.136-5.256c-4.716-0.57-8.077-4.855-7.507-9.571
		c0.051-0.422,0.134-0.841,0.246-1.251l11.486-41.777c1.635-13.095,13.575-22.386,26.671-20.751
		c13.095,1.635,22.386,13.575,20.751,26.671l1.125,43.167c0.124,4.749-3.625,8.699-8.373,8.823c-0.424,0.011-0.848-0.01-1.269-0.06
		L773.131,824.442z"/>
	<path id="Path_128" fill="#002173" d="M767.1,1021.913c-16.398-1.124-28.781-15.329-27.658-31.727
		c0.361-5.27,2.119-10.35,5.092-14.717l28.172-29.25l102.708-91.99l54.909-45.564c10.45-8.671,25.95-7.231,34.622,3.219
		c2.366,2.852,4.059,6.202,4.947,9.802l28.687,116.043c0.998,4-1.199,8.105-5.08,9.494l-31.278,11.258
		c-4.181,1.502-8.786-0.67-10.289-4.849c-0.075-0.211-0.142-0.425-0.201-0.641l-11.895-44.609l-66.193,63.28l20.651,7.601
		c3.926,1.463,6.082,5.687,4.96,9.725l-6.669,23.647c-0.945,3.385-3.988,5.758-7.503,5.85L767.1,1021.913z"/>
	<path id="Path_129" fill="#FFFFFF" d="M764.293,955.953l-2.716-99.23l-17.139-43.524c-13.261-33.652,3.27-71.683,36.922-84.945
		c3.475-1.37,7.06-2.439,10.717-3.196c1.411-0.293,2.818-0.578,4.22-0.857l0,0c35.473-7.042,69.939,16.007,76.981,51.48
		c0.417,2.097,0.73,4.215,0.939,6.343l8.054,74.705l-0.033,0.143c-12.846,57.118-50.001,88.555-116.943,98.928L764.293,955.953z"/>
	<path id="Path_130" fill="#FFDCC3" d="M804.825,887.025c0.976-0.152,1.965-0.227,2.953-0.223l49.584-73.403l-9.391-19.366
		l27.375-17.984l19.955,32.664c3.311,5.421,2.647,12.376-1.63,17.072l-67.862,74.506c2.898,9.941-2.811,20.35-12.752,23.25
		c-9.941,2.898-20.35-2.811-23.25-12.752c-2.898-9.941,2.811-20.35,12.752-23.25c0.745-0.217,1.504-0.388,2.269-0.511
		L804.825,887.025z"/>
	<path id="Path_131" fill="#FFFFFF" d="M853.021,812.033c-2.252-0.628-4.118-2.207-5.11-4.321l-17.149-36.516
		c-6.852-10.249-4.097-24.113,6.152-30.965c10.249-6.852,24.113-4.097,30.965,6.152l27.094,30.068
		c2.971,3.302,2.703,8.387-0.599,11.358c-0.291,0.261-0.6,0.502-0.926,0.718l-33.815,22.464c-1.947,1.295-4.361,1.676-6.611,1.046
		L853.021,812.033z"/>
	<path id="Path_132" fill="#FFDCC3" d="M1378.212,682.753h-144.809c-4.346-0.052-7.828-3.617-7.776-7.963
		c0.051-4.273,3.502-7.725,7.776-7.776h144.809c4.346,0.052,7.828,3.617,7.776,7.963
		C1385.937,679.25,1382.485,682.702,1378.212,682.753z"/>
	<path id="Path_133" fill="#002173" d="M1190.118,690.625c-9.131,0-16.532-7.401-16.532-16.532c0-9.131,7.401-16.532,16.532-16.532
		c9.131,0,16.532,7.401,16.532,16.532l0,0C1206.65,683.222,1199.249,690.625,1190.118,690.625z"/>
	<path id="Path_134" fill="#FFDCC3" d="M1378.212,729.974h-144.809c-4.346,0-7.87-3.523-7.87-7.87c0-4.346,3.523-7.87,7.87-7.87
		h144.809c4.346,0,7.87,3.523,7.87,7.87C1386.082,726.451,1382.558,729.974,1378.212,729.974z"/>
	<path id="Path_135" fill="#002173" d="M1190.118,737.844c-9.131,0-16.532-7.401-16.532-16.532s7.401-16.532,16.532-16.532
		c9.131,0,16.532,7.401,16.532,16.532l0,0C1206.65,730.442,1199.249,737.844,1190.118,737.844z"/>
	<path id="Path_136" fill="#FFDCC3" d="M1378.212,777.194h-144.809c-4.346-0.052-7.828-3.617-7.776-7.963
		c0.051-4.273,3.502-7.725,7.776-7.776h144.809c4.346-0.052,7.911,3.43,7.963,7.776c0.052,4.346-3.43,7.911-7.776,7.963
		C1378.336,777.195,1378.273,777.195,1378.212,777.194z"/>
	<path id="Path_137" fill="#002173" d="M1190.118,785.065c-9.131,0-16.532-7.401-16.532-16.532S1180.987,752,1190.118,752
		c9.131,0,16.532,7.401,16.532,16.532l0,0C1206.65,777.663,1199.249,785.065,1190.118,785.065z"/>
	<path id="Path_138" fill="#3F3D56" d="M1419.811,723.008h59.813c0.869,0,1.573-0.704,1.573-1.574V351.667
		c0.001-0.869-0.701-1.575-1.571-1.578c-0.869-0.001-1.575,0.701-1.578,1.571c0,0.003,0,0.004,0,0.007V719.86h-58.238
		c-0.869-0.001-1.575,0.701-1.578,1.571c-0.001,0.869,0.701,1.575,1.571,1.578C1419.807,723.008,1419.808,723.008,1419.811,723.008z
		"/>
	<path id="Path_139" fill="#FFFFFF" d="M1676.114,132.334L1676.114,132.334c-11.168,0.9-20.952-7.425-21.852-18.592
		c-0.9-11.168,7.425-20.952,18.592-21.852c11.168-0.9,20.952,7.425,21.852,18.592c0,0,0,0,0,0.001
		C1695.606,121.652,1687.282,131.435,1676.114,132.334z M1675.863,129.224L1675.863,129.224c9.451-0.761,16.494-9.039,15.733-18.49
		S1682.556,94.24,1673.107,95s-16.494,9.039-15.734,18.49c0,0,0,0,0,0.001C1658.136,122.941,1666.413,129.984,1675.863,129.224z"/>
	<circle id="Ellipse_41" fill="#FFFFFF" cx="1745.97" cy="67.794" r="12.484"/>
	<circle id="Ellipse_42" fill="#FFFFFF" cx="1807.335" cy="28.571" r="6.558"/>
	<path id="Path_140" fill="#CCCCCC" d="M1580.788,531.65c-6.177,9.348-18.762,11.918-28.11,5.742
		c-9.348-6.177-11.92-18.762-5.742-28.11c6.177-9.348,18.762-11.918,28.11-5.742l0,0l0,0
		C1584.384,509.725,1586.953,522.299,1580.788,531.65z M1549.537,511.003c-5.226,7.91-3.051,18.56,4.859,23.786
		c7.91,5.226,18.56,3.051,23.786-4.859c5.225-7.907,3.053-18.553-4.852-23.782l0,0c-7.913-5.214-18.553-3.04-23.785,4.859
		L1549.537,511.003z"/>
	<circle id="Ellipse_43" fill="#CCCCCC" cx="1605.093" cy="593.776" r="12.484"/>
	<circle id="Ellipse_44" fill="#CCCCCC" cx="1639.918" cy="657.741" r="6.558"/>
	<path id="Path_141" fill="#CCCCCC" d="M1077.045,190.921c-4.986-10.034-0.894-22.21,9.139-27.197
		c10.034-4.986,22.21-0.895,27.197,9.139c4.986,10.034,0.896,22.21-9.139,27.197h-0.001l0,0
		C1094.205,205.033,1082.039,200.944,1077.045,190.921z M1110.585,174.253c-4.219-8.491-14.521-11.954-23.012-7.735
		s-11.954,14.521-7.735,23.012c4.219,8.491,14.521,11.954,23.012,7.735c0.001,0,0.001-0.001,0.001-0.001l0,0
		C1111.331,193.038,1114.792,182.744,1110.585,174.253L1110.585,174.253z"/>
	<circle id="Ellipse_45" fill="#FFFFFF" cx="1011.11" cy="180.769" r="12.484"/>
	<circle id="Ellipse_46" fill="#FFFFFF" cx="938.309" cy="178.792" r="6.558"/>
	<path id="Path_142" fill="#002173" d="M842.688,676.021l-1.828-4.658c-5.045-12.859-17.109-22.742-30.019-24.595
		c-13.146-1.718-26.106,4.291-33.287,15.436c-2.986,5.181-5.344,10.699-7.023,16.438c-0.576,1.709-1.155,2.946-2.269,3.319
		c-1.255,0.447-2.503-0.321-4.572-1.604c-1.342-0.833-3.106-0.417-3.939,0.926c-0.35,0.565-0.492,1.234-0.402,1.893l2.17,15.485
		l-1.815-1.615c-11.812-10.513-14.238-30.296-5.706-42.849l-19.426,3.984l0.875-1.669c8.064-15.566,21.965-27.305,38.661-32.652
		l-18.601-4.096l1.88-1.158c16.657-10.261,38.631-9.972,55.98,0.719c17.69,11.333,28.628,30.684,29.215,51.686L842.688,676.021z"/>
</g>
</svg>
