<svg xmlns="http://www.w3.org/2000/svg" width="57.161" height="57.161" viewBox="0 0 57.161 57.161">
  <path id="linkedin" d="M51.991,0H5.171A5.171,5.171,0,0,0,0,5.171V51.99a5.171,5.171,0,0,0,5.171,5.171H51.99a5.171,5.171,0,0,0,5.171-5.171V5.171A5.171,5.171,0,0,0,51.991,0Zm-34.3,49.357a1.5,1.5,0,0,1-1.5,1.5H9.778a1.5,1.5,0,0,1-1.5-1.5V22.506a1.5,1.5,0,0,1,1.5-1.5h6.405a1.5,1.5,0,0,1,1.5,1.5ZM12.981,18.47a6.085,6.085,0,1,1,6.085-6.085A6.085,6.085,0,0,1,12.981,18.47ZM51.162,49.478a1.384,1.384,0,0,1-1.384,1.384H42.905a1.384,1.384,0,0,1-1.384-1.384V36.883c0-1.879.551-8.233-4.91-8.233-4.236,0-5.1,4.349-5.268,6.3V49.478a1.384,1.384,0,0,1-1.384,1.384H23.313a1.384,1.384,0,0,1-1.384-1.384V22.385A1.384,1.384,0,0,1,23.313,21H29.96a1.384,1.384,0,0,1,1.384,1.384v2.343c1.571-2.357,3.905-4.177,8.875-4.177,11.006,0,10.943,10.282,10.943,15.932v13Z" fill="#0077b7"/>
</svg>
