<svg xmlns="http://www.w3.org/2000/svg" width="1159" height="940.529" viewBox="0 0 1159 940.529">
  <g id="login" transform="translate(0 0)">
    <path id="Path_114" data-name="Path 114" d="M1326.089,719.6c-1.271,2.445-2.6,4.848-3.967,7.237-52.5,91.465-174.631,148.269-380.6,118.2C824.575,827.164,774.77,892.756,726.543,959.94c-.825,1.16-1.649,2.319-2.487,3.479-50.5,70.454-100.5,141.1-225.527,117.618-132.539-20.956-214.336-128.571-226.993-243.465-.154-1.4-.293-2.808-.42-4.205-7.111-74.491,14.865-151.622,70.929-209.852,33.865-35.164,81.979-53.842,131.644-53.256a241.98,241.98,0,0,0,44.65-3.311c3.255-.573,6.413-1.2,9.486-1.914,63.273-14.459,92.429-57.447,110.311-109.906.419-1.243.838-2.487,1.244-3.744,41.06-125.106,22.073-300.7,245.3-274.871,199.751,14.725,346.344,125.484,418.25,253.272.713,1.285,1.425,2.571,2.124,3.856a389.766,389.766,0,0,1,41.8,113.595c.448,2.235.853,4.471,1.23,6.706C1358.25,613.289,1351.585,670.972,1326.089,719.6Z" transform="translate(-218.299 -145.105)" fill="#f2f2f2"/>
    <path id="Path_115" data-name="Path 115" d="M1167.065,337.8a305.9,305.9,0,0,1-48.156,45.977c-68.861,52.809-156.079,81.448-242.123,87.456a481.057,481.057,0,0,1-132.049-8.969c-44.147-9.248-86.255-25.538-127.035-44.566-39.663-18.511-78.151-39.383-117.548-58.411.42-1.243.838-2.487,1.244-3.744C544.356,376.218,586.435,399,629.9,418.7c40.948,18.567,83.334,33.711,127.663,41.814a479.373,479.373,0,0,0,134.089,5.253c85.808-8.634,173.1-40.291,239.064-96.928a285.454,285.454,0,0,0,34.228-34.9C1165.654,335.227,1166.367,336.513,1167.065,337.8Z" transform="translate(-80.315 -49.262)" fill="#fff"/>
    <path id="Path_116" data-name="Path 116" d="M801.629,156.736q-.15,0-.3.01C695.444,163.379,612.5,251.761,612.5,357.957s82.943,194.578,188.828,201.209a4.6,4.6,0,0,0,3.467-1.245,4.551,4.551,0,0,0,1.449-3.349V161.341a4.616,4.616,0,0,0-4.617-4.6Z" transform="translate(-13.011 -155.422)" fill="#f4aa76"/>
    <path id="Path_117" data-name="Path 117" d="M885.523,492.816a5.937,5.937,0,0,1-4.187-1.733L744.428,354.175A5.873,5.873,0,0,1,742.7,350V161.833a5.852,5.852,0,0,1,1.864-4.306,5.942,5.942,0,0,1,4.449-1.6c106.574,6.677,190.059,95.636,190.059,202.523A202.92,202.92,0,0,1,890,490.768a5.943,5.943,0,0,1-4.259,2.045Q885.632,492.816,885.523,492.816Z" transform="translate(64.986 -155.914)" fill="#f4aa76"/>
    <path id="Path_118" data-name="Path 118" d="M748.632,477.264a5.96,5.96,0,0,1-4.069-1.61,5.857,5.857,0,0,1-1.866-4.31V301.572a5.911,5.911,0,0,1,10.09-4.18L872.255,416.862a5.923,5.923,0,0,1-.222,8.583A203.361,203.361,0,0,1,749,477.253C748.876,477.261,748.753,477.264,748.632,477.264Z" transform="translate(64.986 -72.195)" fill="#f57921"/>
    <path id="Path_119" data-name="Path 119" d="M1254.976,414.1c-19.168,33.99-46.229,63.971-77.215,87.735-68.861,52.809-156.079,81.448-242.123,87.456a481.053,481.053,0,0,1-132.05-8.969c-44.147-9.248-86.255-25.538-127.035-44.566-41.52-19.377-81.769-41.353-123.109-61.093-41.3-19.727-83.74-36.547-128.208-47.556,3.255-.573,6.413-1.2,9.486-1.914q4.359,1.132,8.69,2.347c86.952,24.309,163.694,72.214,245.337,109.222,40.948,18.567,83.334,33.711,127.663,41.814A479.368,479.368,0,0,0,950.5,583.825c85.808-8.634,173.1-40.291,239.064-96.928a278.637,278.637,0,0,0,64.181-79.506Q1254.414,410.744,1254.976,414.1Z" transform="translate(-125.195 -5.261)" fill="#fff"/>
    <path id="Path_120" data-name="Path 120" d="M484.34,606.319c85.667,23.946,161.417,70.8,241.719,107.559-.825,1.16-1.649,2.319-2.487,3.479-2.04-.936-4.065-1.872-6.091-2.822-41.52-19.377-81.769-41.353-123.109-61.093-42.177-20.146-85.542-37.259-131.043-48.254a585.547,585.547,0,0,0-192.277-13.677c-.154-1.4-.293-2.808-.42-4.205A589.957,589.957,0,0,1,484.34,606.319Z" transform="translate(-217.814 100.956)" fill="#fff"/>
    <path id="Path_121" data-name="Path 121" d="M848.447,683.713H239.2a1.6,1.6,0,0,1,0-3.2H848.447a1.6,1.6,0,0,1,0,3.2Z" transform="translate(-237.601 158.359)" fill="#fff"/>
    <circle id="Ellipse_40" data-name="Ellipse 40" cx="39.275" cy="39.275" r="39.275" transform="translate(208.771 547.802)" fill="#fce2cf"/>
    <path id="Path_122" data-name="Path 122" d="M275.317,540.442l.916,19.584-75.1,12.857-1.353-28.9Z" transform="translate(119.684 323.763)" fill="#fce2cf"/>
    <path id="Path_123" data-name="Path 123" d="M505.852,692.677l2.085,44.519-.8.038a30.37,30.37,0,0,1-17.617-4.261c-4.794-3.055-7.555-7.287-7.772-11.915h0l-1.273-27.191Z" transform="translate(-92.103 165.645)" fill="#3f67c9"/>
    <path id="Path_124" data-name="Path 124" d="M245.706,588.923h19.6l9.326-75.617-28.934,0Z" transform="translate(147.193 307.506)" fill="#fce2cf"/>
    <path id="Path_125" data-name="Path 125" d="M480.18,712.505l38.608,0h0a24.6,24.6,0,0,1,24.6,24.6v.8l-63.212,0Z" transform="translate(-92.28 177.523)" fill="#3f67c9"/>
    <path id="Path_126" data-name="Path 126" d="M377.423,773.129a17.178,17.178,0,0,0,4-26.036L397.07,591.417,359.8,594.022,356.14,746.228a17.271,17.271,0,0,0,21.283,26.9Z" transform="translate(-169.604 104.983)" fill="#ffdcc3"/>
    <path id="Path_127" data-name="Path 127" d="M396.739,634.716l-38.616-4.706a7.7,7.7,0,0,1-6.5-9.688l10.283-37.4a21.391,21.391,0,0,1,42.453,5.3l1.007,38.645a7.7,7.7,0,0,1-8.632,7.844Z" transform="translate(-169.457 88.668)" fill="#fff"/>
    <path id="Path_128" data-name="Path 128" d="M385.659,792.265a26.644,26.644,0,0,1-20.2-41.579L390.679,724.5l91.947-82.352,49.156-40.79a22.011,22.011,0,0,1,35.424,11.657L592.887,716.9a7.181,7.181,0,0,1-4.548,8.5l-28,10.078a7.2,7.2,0,0,1-9.39-4.916L540.3,690.626l-59.258,56.65,18.488,6.805a7.226,7.226,0,0,1,4.44,8.706L498,783.956a7.167,7.167,0,0,1-6.716,5.237Z" transform="translate(-163.777 107.899)" fill="#002173"/>
    <path id="Path_129" data-name="Path 129" d="M382.975,760.064l-2.432-88.834L365.2,632.266a58.632,58.632,0,0,1,42.648-78.907q1.894-.393,3.778-.767h0a58.623,58.623,0,0,1,69.756,51.765l7.21,66.877-.029.128c-11.5,51.134-44.762,79.276-104.691,88.563Z" transform="translate(-163.606 81.052)" fill="#fff"/>
    <path id="Path_130" data-name="Path 130" d="M402.768,680.549a16.86,16.86,0,0,1,2.643-.2L449.8,614.637,441.393,597.3,465.9,581.2l17.865,29.242a12.793,12.793,0,0,1-1.459,15.283l-60.752,66.7a16.786,16.786,0,1,1-18.782-11.874Z" transform="translate(-147.114 98.86)" fill="#ffdcc3"/>
    <path id="Path_131" data-name="Path 131" d="M433.19,626.69a7.188,7.188,0,0,1-4.575-3.869l-15.352-32.69a19.984,19.984,0,0,1,33.227-22.213l24.255,26.917a7.2,7.2,0,0,1-1.364,10.811l-30.272,20.11a7.188,7.188,0,0,1-5.919.936Z" transform="translate(-134.389 85.585)" fill="#fff"/>
    <path id="Path_132" data-name="Path 132" d="M769.691,547.38H640.054a7.046,7.046,0,0,1,0-14.091H769.691a7.046,7.046,0,0,1,0,14.091Z" transform="translate(-0.725 49.16)" fill="#ffdcc3"/>
    <path id="Path_133" data-name="Path 133" d="M618.725,557.593a14.8,14.8,0,1,1,14.8-14.8,14.8,14.8,0,0,1-14.8,14.8Z" transform="translate(-18.145 45.993)" fill="#002173"/>
    <path id="Path_134" data-name="Path 134" d="M769.691,573.816H640.054a7.045,7.045,0,1,1,0-14.091H769.691a7.045,7.045,0,1,1,0,14.091Z" transform="translate(-0.725 64.997)" fill="#ffdcc3"/>
    <path id="Path_135" data-name="Path 135" d="M618.725,584.029a14.8,14.8,0,1,1,14.8-14.8A14.8,14.8,0,0,1,618.725,584.029Z" transform="translate(-18.145 61.83)" fill="#002173"/>
    <path id="Path_136" data-name="Path 136" d="M769.691,600.252H640.054a7.046,7.046,0,0,1,0-14.091H769.691a7.046,7.046,0,1,1,0,14.091Z" transform="translate(-0.725 80.834)" fill="#ffdcc3"/>
    <path id="Path_137" data-name="Path 137" d="M618.725,610.465a14.8,14.8,0,1,1,14.8-14.8A14.8,14.8,0,0,1,618.725,610.465Z" transform="translate(-18.145 77.667)" fill="#002173"/>
    <path id="Path_138" data-name="Path 138" d="M742.3,689.082h53.546a1.409,1.409,0,0,0,1.409-1.409V356.648a1.409,1.409,0,1,0-2.818,0V686.264H742.3a1.409,1.409,0,1,0,0,2.818Z" transform="translate(63.907 -56.505)" fill="#3f3d56"/>
    <path id="Path_139" data-name="Path 139" d="M892.614,234.407h0a18.162,18.162,0,1,1,16.645-19.561,18.162,18.162,0,0,1-16.645,19.561Zm-.224-2.785h0a15.368,15.368,0,1,0-16.552-14.084,15.368,15.368,0,0,0,16.552,14.084Z" transform="translate(143.042 -130.617)" fill="#fff"/>
    <circle id="Ellipse_41" data-name="Ellipse 41" cx="11.176" cy="11.176" r="11.176" transform="translate(1087.017 34.835)" fill="#fff"/>
    <circle id="Ellipse_42" data-name="Ellipse 42" cx="5.871" cy="5.871" r="5.871" transform="translate(1147.259 5.027)" fill="#fff"/>
    <path id="Path_140" data-name="Path 140" d="M844.378,454.93a18.162,18.162,0,1,1-5.14-25.165h0a18.182,18.182,0,0,1,5.14,25.165ZM816.4,436.446A15.368,15.368,0,1,0,837.7,432.1h0a15.385,15.385,0,0,0-21.293,4.35Z" transform="translate(105.941 6.338)" fill="#ccc"/>
    <circle id="Ellipse_43" data-name="Ellipse 43" cx="11.176" cy="11.176" r="11.176" transform="translate(960.9 505.709)" fill="#ccc"/>
    <circle id="Ellipse_44" data-name="Ellipse 44" cx="5.871" cy="5.871" r="5.871" transform="translate(997.381 568.277)" fill="#ccc"/>
    <path id="Path_141" data-name="Path 141" d="M550.591,263.453a18.162,18.162,0,1,1,24.346,8.182h0a18.182,18.182,0,0,1-24.346-8.182Zm30.026-14.921a15.368,15.368,0,1,0-6.923,20.6h0a15.385,15.385,0,0,0,6.923-20.6Z" transform="translate(-51.238 -107.215)" fill="#ccc"/>
    <circle id="Ellipse_45" data-name="Ellipse 45" cx="11.176" cy="11.176" r="11.176" transform="translate(429.151 135.973)" fill="#fff"/>
    <circle id="Ellipse_46" data-name="Ellipse 46" cx="5.871" cy="5.871" r="5.871" transform="translate(369.282 139.509)" fill="#fff"/>
    <path id="Path_142" data-name="Path 142" d="M454.936,546.97,453.3,542.8c-4.516-11.511-15.316-20.359-26.874-22.018a30.715,30.715,0,0,0-29.8,13.818,67.319,67.319,0,0,0-6.287,14.716c-.515,1.53-1.034,2.637-2.032,2.972-1.123.4-2.241-.288-4.093-1.436a2.561,2.561,0,0,0-3.886,2.524l1.942,13.863-1.625-1.446c-10.574-9.412-12.746-27.122-5.108-38.359L358.148,531l.783-1.494a59.369,59.369,0,0,1,34.611-29.23l-16.652-3.667,1.683-1.037c14.912-9.186,34.584-8.927,50.114.644a56.836,56.836,0,0,1,26.154,46.27Z" transform="translate(-165.386 43.543)" fill="#002173"/>
  </g>
</svg>
