<?xml version="1.0" encoding="utf-8"?>
<!-- Generator: Adobe Illustrator 25.2.0, SVG Export Plug-In . SVG Version: 6.00 Build 0)  -->
<svg version="1.1" id="Layer_1" xmlns="http://www.w3.org/2000/svg" xmlns:xlink="http://www.w3.org/1999/xlink" x="0px" y="0px"
	 viewBox="0 0 768 1080" enable-background="new 0 0 768 1080" xml:space="preserve">
<g id="login" transform="translate(0 0)">
	<path id="Path_114" fill="#F2F2F2" d="M733.61,608.977c-0.841,1.618-1.721,3.208-2.625,4.789
		c-34.743,60.529-115.567,98.121-251.872,78.222c-77.393-11.828-110.352,31.579-142.268,76.04c-0.546,0.768-1.091,1.535-1.646,2.302
		c-33.42,46.625-66.509,93.377-149.248,77.837C98.239,834.299,44.108,763.082,35.732,687.048c-0.102-0.927-0.194-1.858-0.278-2.783
		c-4.706-49.296,9.837-100.34,46.939-138.875c22.411-23.271,54.252-35.631,87.119-35.244c9.896,0.184,19.788-0.549,29.548-2.191
		c2.154-0.379,4.244-0.794,6.278-1.267c41.873-9.569,61.167-38.017,73.001-72.733c0.277-0.823,0.555-1.646,0.823-2.478
		c27.173-82.792,14.607-198.996,162.334-181.903c132.19,9.745,229.202,83.042,276.788,167.609c0.472,0.85,0.943,1.701,1.406,2.552
		c13.079,23.465,22.412,48.829,27.662,75.174c0.296,1.479,0.565,2.959,0.814,4.438C754.893,538.623,750.482,576.796,733.61,608.977z
		"/>
	<path id="Path_115" fill="#FFFFFF" d="M719.686,419.738c-9.484,11.271-20.17,21.474-31.868,30.426
		c-45.571,34.948-103.289,53.9-160.231,57.876c-29.263,2.057-58.671,0.06-87.387-5.935c-29.215-6.12-57.082-16.9-84.069-29.493
		c-26.248-12.25-51.718-26.063-77.79-38.655c0.278-0.823,0.555-1.646,0.823-2.478c28.429,13.682,56.276,28.759,85.04,41.796
		c27.098,12.287,55.148,22.309,84.484,27.672c29.27,5.314,59.141,6.484,88.737,3.476c56.786-5.714,114.553-26.664,158.207-64.145
		c8.197-7.037,15.775-14.764,22.651-23.096C718.752,418.035,719.224,418.886,719.686,419.738z"/>
	<path id="Path_116" fill="#F4AA76" d="M522.389,229.66c-0.066,0-0.132,0.002-0.199,0.007
		c-70.072,4.39-124.963,62.879-124.963,133.157s54.89,128.767,124.962,133.155c0.846,0.057,1.678-0.242,2.294-0.824
		c0.615-0.573,0.962-1.376,0.959-2.216V232.707c-0.006-1.683-1.372-3.045-3.055-3.044L522.389,229.66z"/>
	<path id="Path_117" fill="#F4AA76" d="M629.525,451.744c-1.039-0.001-2.035-0.413-2.771-1.147l-90.602-90.602
		c-0.734-0.732-1.146-1.726-1.144-2.763V232.707c-0.004-1.08,0.443-2.113,1.234-2.85c0.793-0.745,1.859-1.128,2.944-1.059
		c70.528,4.419,125.777,63.29,125.777,134.025c0,32.134-11.522,63.202-32.475,87.565c-0.712,0.821-1.732,1.311-2.818,1.353
		C629.621,451.743,629.573,451.744,629.525,451.744z"/>
	<path id="Path_118" fill="#F57921" d="M538.934,496.855c-1-0.001-1.963-0.382-2.693-1.065c-0.791-0.737-1.239-1.771-1.235-2.852
		V380.586c0-2.16,1.752-3.912,3.912-3.911c1.037,0,2.032,0.412,2.765,1.145l79.061,79.062c1.53,1.532,1.529,4.013-0.003,5.543
		c-0.047,0.047-0.095,0.092-0.144,0.137c-22.509,20.265-51.195,32.344-81.42,34.285
		C539.095,496.853,539.014,496.855,538.934,496.855z"/>
	<path id="Path_119" fill="#FFFFFF" d="M748.163,499.35c-12.685,22.494-30.593,42.334-51.099,58.061
		c-45.571,34.948-103.289,53.9-160.231,57.876c-29.264,2.057-58.671,0.06-87.388-5.935c-29.215-6.12-57.082-16.9-84.069-29.493
		c-27.477-12.823-54.113-27.366-81.471-40.43c-27.331-13.055-55.417-24.186-84.845-31.471c2.154-0.379,4.244-0.794,6.278-1.267
		c1.923,0.499,3.84,1.017,5.751,1.553c57.543,16.087,108.329,47.789,162.358,72.281c27.098,12.287,55.148,22.309,84.484,27.672
		c29.27,5.313,59.141,6.482,88.736,3.474c56.786-5.714,114.553-26.664,158.207-64.145c17.28-14.77,31.68-32.609,42.473-52.615
		C747.643,496.389,747.915,497.869,748.163,499.35z"/>
	<path id="Path_120" fill="#FFFFFF" d="M176.881,696.848c56.692,15.847,106.822,46.854,159.964,71.18
		c-0.546,0.768-1.091,1.535-1.646,2.302c-1.35-0.619-2.69-1.239-4.031-1.868c-27.477-12.823-54.113-27.366-81.471-40.43
		c-27.912-13.332-56.61-24.657-86.721-31.933c-41.624-10.026-84.621-13.084-127.244-9.051c-0.102-0.927-0.194-1.858-0.278-2.783
		C82.969,679.78,130.904,684.045,176.881,696.848z"/>
	<path id="Path_121" fill="#FFFFFF" d="M404.744,786.053H1.559c-0.585,0-1.059-0.474-1.059-1.059s0.474-1.059,1.059-1.059h403.185
		c0.585,0,1.059,0.474,1.059,1.059S405.329,786.053,404.744,786.053z"/>
	<circle id="Ellipse_40" fill="#FCE2CF" cx="164.652" cy="617.304" r="25.991"/>
	<path id="Path_122" fill="#FCE2CF" d="M261.903,800.7l0.606,12.96l-49.699,8.508l-0.895-19.125L261.903,800.7z"/>
	<path id="Path_123" fill="#3F67C9" d="M274.31,796.807l1.38,29.462l-0.529,0.025c-4.083,0.269-8.15-0.715-11.659-2.82
		c-3.173-2.022-5-4.822-5.143-7.885l0,0l-0.842-17.994L274.31,796.807z"/>
	<path id="Path_124" fill="#FCE2CF" d="M260.512,822.026h12.971l6.172-50.042h-19.148L260.512,822.026z"/>
	<path id="Path_125" fill="#3F67C9" d="M257.204,817.789h25.55l0,0c8.991,0,16.28,7.289,16.28,16.28v0.529h-41.832L257.204,817.789z
		"/>
	<path id="Path_126" fill="#FFDCC3" d="M138.03,809.904c5.37-3.253,7.086-10.243,3.833-15.613c-0.347-0.573-0.744-1.114-1.186-1.617
		l10.355-103.023l-24.664,1.724l-2.422,100.726c-4.454,4.473-4.439,11.71,0.034,16.164
		C127.722,811.992,133.531,812.669,138.03,809.904L138.03,809.904z"/>
	<path id="Path_127" fill="#FFFFFF" d="M150.911,707.508l-25.555-3.114c-2.794-0.338-4.785-2.876-4.447-5.67
		c0.03-0.25,0.079-0.498,0.146-0.741l6.805-24.75c0.969-7.758,8.043-13.262,15.801-12.294s13.262,8.043,12.293,15.801l0.666,25.574
		c0.073,2.813-2.148,5.154-4.961,5.227c-0.251,0.007-0.502-0.005-0.751-0.036L150.911,707.508z"/>
	<path id="Path_128" fill="#002173" d="M147.337,824.497c-9.715-0.666-17.051-9.082-16.385-18.797
		c0.214-3.123,1.255-6.132,3.017-8.719l16.69-17.329l60.848-54.499l32.53-26.994c6.191-5.137,15.374-4.283,20.511,1.908
		c1.402,1.69,2.404,3.675,2.931,5.807l16.995,68.749c0.591,2.37-0.71,4.802-3.01,5.625l-18.53,6.669
		c-2.477,0.89-5.205-0.397-6.095-2.873c-0.045-0.125-0.085-0.252-0.119-0.38l-7.047-26.429l-39.216,37.49l12.235,4.503
		c2.326,0.867,3.603,3.369,2.938,5.761l-3.951,14.009c-0.56,2.006-2.363,3.411-4.444,3.466L147.337,824.497z"/>
	<path id="Path_129" fill="#FFFFFF" d="M145.674,785.421l-1.609-58.788l-10.154-25.785c-7.856-19.937,1.937-42.468,21.874-50.325
		c2.059-0.811,4.183-1.445,6.349-1.894c0.836-0.173,1.669-0.343,2.5-0.508l0,0c21.016-4.172,41.435,9.483,45.607,30.499
		c0.247,1.243,0.432,2.497,0.556,3.758l4.771,44.258l-0.019,0.085c-7.61,33.839-29.622,52.463-69.282,58.609L145.674,785.421z"/>
	<path id="Path_130" fill="#FFDCC3" d="M169.686,744.584c0.579-0.09,1.163-0.134,1.749-0.132l29.376-43.487l-5.564-11.473
		l16.218-10.655l11.823,19.352c1.962,3.211,1.568,7.332-0.966,10.114l-40.204,44.14c1.717,5.89-1.665,12.057-7.555,13.774
		c-5.89,1.717-12.057-1.665-13.774-7.555c-1.717-5.89,1.665-12.057,7.555-13.774c0.441-0.129,0.891-0.23,1.345-0.303
		L169.686,744.584z"/>
	<path id="Path_131" fill="#FFFFFF" d="M198.24,700.157c-1.334-0.372-2.439-1.307-3.028-2.56l-10.16-21.633
		c-4.059-6.072-2.428-14.285,3.644-18.344c6.072-4.059,14.285-2.428,18.344,3.644l16.051,17.813c1.76,1.956,1.602,4.969-0.354,6.729
		c-0.172,0.155-0.355,0.297-0.548,0.425l-20.033,13.308c-1.153,0.767-2.583,0.993-3.917,0.619L198.24,700.157z"/>
	<path id="Path_132" fill="#FFDCC3" d="M509.384,623.566h-85.791c-2.575-0.031-4.638-2.143-4.607-4.718
		c0.03-2.532,2.075-4.577,4.607-4.607h85.791c2.575,0.031,4.638,2.143,4.607,4.718C513.961,621.491,511.916,623.536,509.384,623.566
		z"/>
	<path id="Path_133" fill="#002173" d="M397.95,628.229c-5.409,0-9.794-4.385-9.794-9.794c0-5.409,4.385-9.794,9.794-9.794
		c5.409,0,9.794,4.385,9.794,9.794l0,0C407.745,623.844,403.359,628.229,397.95,628.229z"/>
	<path id="Path_134" fill="#FFDCC3" d="M509.384,651.541h-85.791c-2.575,0-4.663-2.087-4.663-4.662c0-2.575,2.087-4.663,4.663-4.663
		h85.791c2.575,0,4.663,2.087,4.663,4.663C514.047,649.454,511.959,651.541,509.384,651.541z"/>
	<path id="Path_135" fill="#002173" d="M397.95,656.204c-5.409,0-9.794-4.385-9.794-9.794c0-5.409,4.385-9.794,9.794-9.794
		c5.409,0,9.794,4.385,9.794,9.794l0,0C407.745,651.819,403.359,656.204,397.95,656.204z"/>
	<path id="Path_136" fill="#FFDCC3" d="M509.384,679.517h-85.791c-2.575-0.031-4.638-2.143-4.607-4.718
		c0.03-2.532,2.075-4.577,4.607-4.607h85.791c2.575-0.031,4.687,2.032,4.718,4.607c0.031,2.575-2.032,4.687-4.607,4.718
		C509.458,679.517,509.421,679.517,509.384,679.517z"/>
	<path id="Path_137" fill="#002173" d="M397.95,684.18c-5.409,0-9.794-4.385-9.794-9.794c0-5.409,4.385-9.794,9.794-9.794
		c5.409,0,9.794,4.385,9.794,9.794l0,0C407.745,679.794,403.359,684.18,397.95,684.18z"/>
	<path id="Path_138" fill="#3F3D56" d="M534.029,647.414h35.435c0.515,0,0.932-0.417,0.932-0.932V427.418
		c0.001-0.515-0.415-0.933-0.93-0.934c-0.515-0.001-0.933,0.415-0.935,0.93c0,0.001,0,0.003,0,0.004V645.55h-34.503
		c-0.515-0.001-0.933,0.415-0.935,0.93s0.415,0.933,0.93,0.935C534.027,647.414,534.028,647.414,534.029,647.414z"/>
	<path id="Path_139" fill="#FFFFFF" d="M685.873,297.476L685.873,297.476c-6.617,0.533-12.412-4.399-12.946-11.015
		c-0.533-6.617,4.399-12.412,11.015-12.945s12.412,4.399,12.945,11.015c0,0,0,0,0,0C697.421,291.147,692.49,296.943,685.873,297.476
		z M685.725,295.633L685.725,295.633c5.599-0.451,9.772-5.355,9.321-10.954s-5.355-9.772-10.954-9.321s-9.772,5.355-9.321,10.954
		c0,0,0,0,0,0C675.222,291.911,680.126,296.084,685.725,295.633z"/>
	<circle id="Ellipse_41" fill="#FFFFFF" cx="727.259" cy="259.239" r="7.396"/>
	<circle id="Ellipse_42" fill="#FFFFFF" cx="763.615" cy="236.002" r="3.885"/>
	<path id="Path_140" fill="#CCCCCC" d="M629.399,534.046c-3.659,5.538-11.116,7.061-16.654,3.402s-7.061-11.116-3.402-16.654
		s11.116-7.061,16.654-3.402c0,0,0,0,0,0l0,0C631.529,521.057,633.051,528.507,629.399,534.046z M610.884,521.814
		c-3.096,4.686-1.807,10.995,2.879,14.092s10.995,1.807,14.092-2.879c3.095-4.685,1.809-10.992-2.875-14.089l0,0
		c-4.687-3.089-10.991-1.802-14.091,2.879L610.884,521.814z"/>
	<circle id="Ellipse_43" fill="#CCCCCC" cx="643.797" cy="570.852" r="7.396"/>
	<circle id="Ellipse_44" fill="#CCCCCC" cx="664.429" cy="608.748" r="3.885"/>
	<path id="Path_141" fill="#CCCCCC" d="M330.961,332.185c-2.954-5.944-0.53-13.158,5.414-16.112
		c5.944-2.954,13.158-0.53,16.112,5.414c2.954,5.944,0.53,13.158-5.414,16.112c0,0,0,0-0.001,0l0,0
		C341.127,340.545,333.92,338.123,330.961,332.185z M350.831,322.31c-2.499-5.03-8.603-7.082-13.633-4.583
		c-5.03,2.499-7.082,8.603-4.583,13.633c2.499,5.03,8.603,7.082,13.633,4.583c0,0,0.001,0,0.001-0.001l0,0
		C351.274,333.439,353.323,327.34,350.831,322.31L350.831,322.31z"/>
	<circle id="Ellipse_45" fill="#FFFFFF" cx="291.899" cy="326.17" r="7.396"/>
	<circle id="Ellipse_46" fill="#FFFFFF" cx="248.768" cy="324.999" r="3.885"/>
	<path id="Path_142" fill="#002173" d="M192.118,619.578l-1.083-2.76c-2.989-7.618-10.136-13.473-17.785-14.571
		c-7.788-1.018-15.466,2.542-19.721,9.144c-1.769,3.069-3.166,6.339-4.161,9.739c-0.341,1.013-0.684,1.745-1.345,1.967
		c-0.743,0.265-1.483-0.191-2.709-0.95c-0.796-0.493-1.84-0.247-2.333,0.548c-0.207,0.335-0.292,0.732-0.238,1.122l1.285,9.174
		l-1.075-0.957c-6.998-6.229-8.435-17.949-3.38-25.385l-11.508,2.36l0.518-0.989c4.778-9.222,13.013-16.177,22.905-19.344
		l-11.02-2.427l1.114-0.686c9.868-6.079,22.887-5.908,33.164,0.426c10.48,6.714,16.961,18.179,17.308,30.62L192.118,619.578z"/>
</g>
</svg>
