<?xml version="1.0" encoding="utf-8"?>
<!-- Generator: Adobe Illustrator 25.2.0, SVG Export Plug-In . SVG Version: 6.00 Build 0)  -->
<svg version="1.1" id="Layer_1" xmlns="http://www.w3.org/2000/svg" xmlns:xlink="http://www.w3.org/1999/xlink" x="0px" y="0px"
	 viewBox="0 0 1920 1080" enable-background="new 0 0 1920 1080" xml:space="preserve">
<g id="login" transform="translate(0 0)">
	<path id="Path_114" fill="#F2F2F2" d="M1766.108,644.23c-1.271,2.445-2.6,4.848-3.967,7.237
		c-52.5,91.465-174.631,148.269-380.6,118.2c-116.947-17.873-166.752,47.719-214.979,114.903c-0.825,1.16-1.649,2.319-2.487,3.479
		c-50.5,70.454-100.5,141.1-225.527,117.618c-132.539-20.956-214.336-128.571-226.993-243.465c-0.154-1.4-0.293-2.808-0.42-4.205
		c-7.111-74.491,14.865-151.622,70.929-209.852c33.865-35.164,81.979-53.842,131.644-53.256c14.954,0.279,29.901-0.83,44.65-3.311
		c3.255-0.573,6.413-1.2,9.486-1.914c63.273-14.459,92.429-57.447,110.311-109.906c0.419-1.243,0.838-2.487,1.244-3.744
		c41.06-125.106,22.073-300.7,245.3-274.871c199.751,14.725,346.344,125.484,418.25,253.272c0.713,1.285,1.425,2.571,2.124,3.856
		c19.764,35.457,33.867,73.784,41.8,113.595c0.448,2.235,0.853,4.471,1.23,6.706C1798.269,537.919,1791.604,595.602,1766.108,644.23
		z"/>
	<path id="Path_115" fill="#FFFFFF" d="M1745.068,358.273c-14.331,17.032-30.479,32.449-48.156,45.977
		c-68.861,52.809-156.079,81.448-242.123,87.456c-44.219,3.109-88.656,0.09-132.049-8.969
		c-44.147-9.248-86.255-25.538-127.035-44.566c-39.663-18.511-78.151-39.383-117.548-58.411c0.42-1.243,0.838-2.487,1.244-3.744
		c42.958,20.675,85.037,43.457,128.502,63.157c40.948,18.567,83.334,33.711,127.663,41.814c44.229,8.029,89.367,9.798,134.089,5.253
		c85.808-8.634,173.1-40.291,239.064-96.928c12.386-10.633,23.838-22.309,34.228-34.9
		C1743.657,355.7,1744.37,356.986,1745.068,358.273z"/>
	<path id="Path_116" fill="#F4AA76" d="M1446.936,71.049c-0.1,0-0.2,0.003-0.3,0.01c-105.885,6.633-188.829,95.015-188.829,201.211
		s82.943,194.578,188.828,201.209c1.279,0.086,2.535-0.365,3.467-1.245c0.929-0.865,1.454-2.079,1.449-3.349V75.654
		c-0.009-2.543-2.073-4.601-4.617-4.6L1446.936,71.049z"/>
	<path id="Path_117" fill="#F4AA76" d="M1608.827,406.637c-1.57-0.001-3.075-0.624-4.187-1.733l-136.908-136.908
		c-1.11-1.106-1.732-2.609-1.728-4.175V75.654c-0.006-1.633,0.669-3.193,1.864-4.306c1.198-1.126,2.809-1.705,4.449-1.6
		c106.574,6.677,190.059,95.636,190.059,202.523c0.001,48.557-17.41,95.504-49.072,132.318c-1.076,1.241-2.618,1.981-4.259,2.045
		C1608.973,406.636,1608.9,406.637,1608.827,406.637z"/>
	<path id="Path_118" fill="#F57921" d="M1471.936,474.804c-1.511-0.001-2.966-0.577-4.069-1.61c-1.196-1.113-1.872-2.676-1.866-4.31
		V299.112c0-3.265,2.647-5.911,5.911-5.911c1.567,0,3.07,0.623,4.179,1.731l119.468,119.47c2.312,2.314,2.31,6.065-0.004,8.376
		c-0.071,0.071-0.143,0.14-0.218,0.207c-34.013,30.622-77.361,48.875-123.033,51.808
		C1472.18,474.801,1472.057,474.804,1471.936,474.804z"/>
	<path id="Path_119" fill="#FFFFFF" d="M1788.099,478.574c-19.168,33.99-46.229,63.971-77.215,87.735
		c-68.861,52.809-156.079,81.448-242.123,87.456c-44.22,3.109-88.657,0.091-132.05-8.969
		c-44.147-9.248-86.255-25.538-127.035-44.566c-41.52-19.377-81.769-41.353-123.109-61.093
		c-41.3-19.727-83.74-36.547-128.208-47.556c3.255-0.573,6.413-1.2,9.486-1.914c2.906,0.755,5.803,1.537,8.69,2.347
		c86.952,24.309,163.694,72.214,245.337,109.222c40.948,18.567,83.334,33.711,127.663,41.814
		c44.229,8.028,89.367,9.795,134.088,5.249c85.808-8.634,173.1-40.291,239.064-96.928c26.112-22.319,47.871-49.274,64.181-79.506
		C1787.314,474.101,1787.724,476.337,1788.099,478.574z"/>
	<path id="Path_120" fill="#FFFFFF" d="M924.844,777.01c85.667,23.946,161.417,70.8,241.719,107.559
		c-0.825,1.16-1.649,2.319-2.487,3.479c-2.04-0.936-4.065-1.872-6.091-2.822c-41.52-19.377-81.769-41.353-123.109-61.093
		c-42.177-20.146-85.542-37.259-131.043-48.254c-62.897-15.15-127.869-19.771-192.277-13.677c-0.154-1.4-0.293-2.808-0.42-4.205
		C782.935,751.22,855.369,757.664,924.844,777.01z"/>
	<path id="Path_121" fill="#FFFFFF" d="M1269.164,911.807H659.917c-0.884,0-1.6-0.716-1.6-1.6c0-0.884,0.716-1.6,1.6-1.6h609.247
		c0.884,0,1.6,0.716,1.6,1.6C1270.764,911.091,1270.048,911.807,1269.164,911.807z"/>
	<circle id="Ellipse_40" fill="#FCE2CF" cx="906.364" cy="656.812" r="39.275"/>
	<path id="Path_122" fill="#FCE2CF" d="M1053.319,933.94l0.916,19.584l-75.1,12.857l-1.353-28.9L1053.319,933.94z"/>
	<path id="Path_123" fill="#3F67C9" d="M1072.067,928.057l2.085,44.519l-0.8,0.038c-6.169,0.406-12.315-1.081-17.617-4.261
		c-4.794-3.055-7.555-7.287-7.772-11.915l0,0l-1.273-27.191L1072.067,928.057z"/>
	<path id="Path_124" fill="#FCE2CF" d="M1051.217,966.164h19.6l9.326-75.617h-28.934L1051.217,966.164z"/>
	<path id="Path_125" fill="#3F67C9" d="M1046.218,959.763h38.608l0,0c13.586,0,24.6,11.014,24.6,24.6v0.8h-63.212L1046.218,959.763z
		"/>
	<path id="Path_126" fill="#FFDCC3" d="M866.137,947.847c8.115-4.915,10.708-15.478,5.793-23.593
		c-0.524-0.866-1.124-1.683-1.793-2.443l15.647-155.676l-37.27,2.605l-3.66,152.206c-6.731,6.759-6.708,17.694,0.051,24.425
		C850.56,951.003,859.338,952.026,866.137,947.847L866.137,947.847z"/>
	<path id="Path_127" fill="#FFFFFF" d="M885.6,793.119l-38.616-4.706c-4.222-0.51-7.231-4.346-6.721-8.568
		c0.046-0.378,0.119-0.752,0.221-1.12l10.283-37.4c1.464-11.723,12.153-20.04,23.877-18.576
		c11.723,1.464,20.04,12.153,18.576,23.876l1.007,38.645c0.111,4.251-3.245,7.787-7.496,7.898c-0.379,0.01-0.759-0.008-1.136-0.054
		L885.6,793.119z"/>
	<path id="Path_128" fill="#002173" d="M880.2,969.899c-14.681-1.006-25.766-13.723-24.759-28.404
		c0.323-4.719,1.897-9.266,4.559-13.175l25.22-26.186l91.947-82.352l49.156-40.79c9.355-7.763,23.232-6.472,30.995,2.882
		c2.119,2.554,3.633,5.553,4.43,8.775l25.681,103.885c0.894,3.581-1.073,7.257-4.548,8.5l-28,10.078
		c-3.742,1.344-7.866-0.599-9.21-4.342c-0.068-0.189-0.128-0.381-0.18-0.574l-10.649-39.936l-59.258,56.65l18.488,6.805
		c3.516,1.309,5.444,5.091,4.44,8.706l-5.97,21.169c-0.846,3.031-3.57,5.155-6.716,5.237L880.2,969.899z"/>
	<path id="Path_129" fill="#FFFFFF" d="M877.687,910.852l-2.432-88.834l-15.343-38.964c-11.872-30.127,2.927-64.173,33.054-76.045
		c3.111-1.226,6.32-2.183,9.594-2.862c1.263-0.262,2.522-0.518,3.778-0.767l0,0c31.757-6.304,62.611,14.33,68.915,46.087
		c0.373,1.878,0.653,3.773,0.841,5.678l7.21,66.877l-0.029,0.128c-11.5,51.134-44.762,79.276-104.691,88.563L877.687,910.852z"/>
	<path id="Path_130" fill="#FFDCC3" d="M913.972,849.144c0.874-0.136,1.758-0.203,2.643-0.2l44.389-65.712l-8.407-17.337
		l24.507-16.1l17.865,29.242c2.964,4.852,2.37,11.079-1.459,15.283l-60.752,66.7c2.595,8.9-2.516,18.219-11.416,20.814
		c-8.9,2.595-18.219-2.516-20.814-11.416c-2.595-8.9,2.516-18.219,11.416-20.814c0.667-0.195,1.346-0.347,2.032-0.458
		L913.972,849.144z"/>
	<path id="Path_131" fill="#FFFFFF" d="M957.119,782.01c-2.015-0.562-3.686-1.975-4.575-3.869l-15.352-32.69
		c-6.134-9.175-3.668-21.586,5.507-27.72c9.175-6.134,21.586-3.668,27.72,5.507l24.255,26.917c2.66,2.956,2.42,7.508-0.536,10.168
		c-0.26,0.234-0.537,0.449-0.828,0.643l-30.272,20.11c-1.743,1.159-3.904,1.5-5.919,0.936V782.01z"/>
	<path id="Path_132" fill="#FFDCC3" d="M1427.284,666.275h-129.637c-3.891-0.046-7.008-3.238-6.962-7.129
		c0.046-3.826,3.136-6.916,6.962-6.962h129.637c3.891,0.046,7.008,3.238,6.962,7.129C1434.2,663.14,1431.11,666.23,1427.284,666.275
		z"/>
	<path id="Path_133" fill="#002173" d="M1258.898,673.321c-8.174,0-14.8-6.626-14.8-14.8s6.626-14.8,14.8-14.8
		c8.174,0,14.8,6.626,14.8,14.8l0,0C1273.698,666.695,1267.072,673.321,1258.898,673.321z"/>
	<path id="Path_134" fill="#FFDCC3" d="M1427.284,708.548h-129.637c-3.891,0-7.046-3.154-7.046-7.045
		c0-3.891,3.154-7.046,7.046-7.046h129.637c3.891,0,7.045,3.154,7.045,7.046C1434.33,705.394,1431.175,708.548,1427.284,708.548z"/>
	<path id="Path_135" fill="#002173" d="M1258.898,715.594c-8.174,0-14.8-6.626-14.8-14.8s6.626-14.8,14.8-14.8
		c8.174,0,14.8,6.626,14.8,14.8l0,0C1273.698,708.968,1267.072,715.594,1258.898,715.594z"/>
	<path id="Path_136" fill="#FFDCC3" d="M1427.284,750.821h-129.637c-3.891-0.046-7.008-3.238-6.962-7.129
		c0.046-3.826,3.136-6.916,6.962-6.962h129.637c3.891-0.046,7.083,3.071,7.129,6.962s-3.071,7.083-6.962,7.129
		C1427.396,750.822,1427.34,750.822,1427.284,750.821z"/>
	<path id="Path_137" fill="#002173" d="M1258.898,757.867c-8.174,0-14.8-6.626-14.8-14.8s6.626-14.8,14.8-14.8
		c8.174,0,14.8,6.626,14.8,14.8l0,0C1273.698,751.241,1267.072,757.867,1258.898,757.867z"/>
	<path id="Path_138" fill="#3F3D56" d="M1464.525,702.312h53.546c0.778,0,1.409-0.631,1.409-1.409V369.878
		c0.002-0.778-0.628-1.41-1.406-1.412c-0.778-0.002-1.41,0.628-1.412,1.406c0,0.002,0,0.004,0,0.006v329.616h-52.137
		c-0.778-0.002-1.41,0.628-1.412,1.406c-0.002,0.778,0.628,1.41,1.406,1.412C1464.521,702.312,1464.523,702.312,1464.525,702.312z"
		/>
	<path id="Path_139" fill="#FFFFFF" d="M1693.974,173.525L1693.974,173.525c-9.998,0.805-18.756-6.647-19.562-16.645
		s6.647-18.756,16.645-19.562c9.998-0.805,18.756,6.647,19.562,16.645c0,0,0,0.001,0,0.001
		C1711.424,163.962,1703.972,172.72,1693.974,173.525z M1693.75,170.74L1693.75,170.74c8.46-0.681,14.766-8.092,14.085-16.552
		c-0.681-8.46-8.092-14.766-16.552-14.085c-8.46,0.681-14.766,8.092-14.085,16.552c0,0,0,0.001,0,0.001
		C1677.88,165.116,1685.29,171.422,1693.75,170.74z"/>
	<circle id="Ellipse_41" fill="#FFFFFF" cx="1756.511" cy="115.746" r="11.176"/>
	<circle id="Ellipse_42" fill="#FFFFFF" cx="1811.448" cy="80.633" r="5.871"/>
	<path id="Path_140" fill="#CCCCCC" d="M1608.637,531.003c-5.53,8.369-16.797,10.67-25.165,5.14
		c-8.369-5.53-10.67-16.797-5.141-25.165c5.53-8.369,16.797-10.67,25.165-5.14c0,0,0,0,0,0l0,0
		C1611.856,511.375,1614.155,522.633,1608.637,531.003z M1580.659,512.519c-4.679,7.081-2.731,16.615,4.35,21.294
		s16.615,2.731,21.294-4.35c4.677-7.079,2.733-16.609-4.344-21.29l0,0c-7.083-4.668-16.609-2.722-21.293,4.35L1580.659,512.519z"/>
	<circle id="Ellipse_43" fill="#CCCCCC" cx="1630.394" cy="586.62" r="11.176"/>
	<circle id="Ellipse_44" fill="#CCCCCC" cx="1661.57" cy="643.883" r="5.871"/>
	<path id="Path_141" fill="#CCCCCC" d="M1157.671,225.973c-4.464-8.983-0.801-19.883,8.182-24.347s19.883-0.801,24.347,8.181
		s0.801,19.883-8.182,24.347c0,0-0.001,0-0.001,0.001l0,0C1173.034,238.607,1162.143,234.947,1157.671,225.973z M1187.697,211.052
		c-3.776-7.601-13-10.701-20.601-6.925c-7.601,3.777-10.701,13-6.925,20.601c3.777,7.601,13,10.701,20.601,6.925
		c0.001,0,0.001-0.001,0.002-0.001l0,0C1188.366,227.869,1191.463,218.653,1187.697,211.052L1187.697,211.052z"/>
	<circle id="Ellipse_45" fill="#FFFFFF" cx="1098.645" cy="216.884" r="11.176"/>
	<circle id="Ellipse_46" fill="#FFFFFF" cx="1033.471" cy="215.115" r="5.871"/>
	<path id="Path_142" fill="#002173" d="M947.868,660.248l-1.636-4.17c-4.516-11.511-15.316-20.359-26.874-22.018
		c-11.769-1.539-23.371,3.841-29.8,13.818c-2.673,4.638-4.784,9.578-6.287,14.716c-0.515,1.53-1.034,2.637-2.032,2.972
		c-1.123,0.4-2.241-0.288-4.093-1.436c-1.202-0.745-2.781-0.374-3.526,0.829c-0.313,0.506-0.441,1.106-0.36,1.695l1.942,13.863
		l-1.625-1.446c-10.574-9.412-12.746-27.122-5.108-38.359l-17.389,3.566l0.783-1.494c7.22-13.935,19.664-24.444,34.611-29.23
		l-16.652-3.667l1.683-1.037c14.912-9.186,34.584-8.927,50.114,0.644c15.837,10.146,25.629,27.469,26.154,46.27L947.868,660.248z"/>
</g>
</svg>
