<?xml version="1.0" encoding="utf-8"?>
<!-- Generator: Adobe Illustrator 25.2.0, SVG Export Plug-In . SVG Version: 6.00 Build 0)  -->
<svg version="1.1" id="Layer_1" xmlns="http://www.w3.org/2000/svg" xmlns:xlink="http://www.w3.org/1999/xlink" x="0px" y="0px"
	 viewBox="0 0 1024 768" enable-background="new 0 0 1024 768" xml:space="preserve">
<g id="login" transform="translate(0 0)">
	<path id="Path_114" fill="#F2F2F2" d="M943.66,469.166c-1.039,1.998-2.124,3.961-3.241,5.913
		c-42.897,74.735-142.689,121.149-310.984,96.58c-95.556-14.604-136.251,38.991-175.657,93.886
		c-0.674,0.948-1.347,1.895-2.032,2.843c-41.263,57.567-82.118,115.291-184.276,96.104
		C159.173,747.369,92.338,659.438,81.996,565.559c-0.126-1.144-0.239-2.294-0.343-3.436c-5.81-60.866,12.146-123.889,57.955-171.468
		c27.671-28.732,66.984-43.994,107.565-43.515c12.219,0.228,24.432-0.678,36.483-2.705c2.66-0.468,5.24-0.981,7.751-1.564
		c51.7-11.814,75.523-46.939,90.134-89.803c0.342-1.016,0.685-2.032,1.016-3.059C416.107,147.786,400.593,4.31,582.99,25.415
		c163.215,12.032,282.994,102.532,341.748,206.946c0.583,1.05,1.164,2.101,1.735,3.151c16.149,28.972,27.672,60.288,34.154,92.817
		c0.366,1.826,0.697,3.653,1.005,5.479C969.939,382.3,964.493,429.432,943.66,469.166z"/>
	<path id="Path_115" fill="#FFFFFF" d="M926.469,235.513c-11.71,13.917-24.904,26.514-39.348,37.567
		c-56.266,43.15-127.531,66.55-197.836,71.459c-36.131,2.54-72.44,0.074-107.896-7.328c-36.072-7.556-70.478-20.867-103.799-36.414
		c-32.408-15.125-63.856-32.179-96.047-47.727c0.343-1.016,0.685-2.032,1.016-3.059c35.101,16.893,69.483,35.508,104.998,51.605
		c33.458,15.171,68.091,27.545,104.312,34.166c36.139,6.561,73.021,8.006,109.563,4.292c70.113-7.055,141.438-32.921,195.337-79.199
		c10.121-8.688,19.477-18.229,27.967-28.516C925.316,233.411,925.898,234.461,926.469,235.513z"/>
	<path id="Path_116" fill="#F4AA76" d="M682.868,0.825c-0.082,0-0.163,0.003-0.245,0.008c-86.518,5.42-154.29,77.636-154.29,164.408
		s67.772,158.988,154.289,164.406c1.045,0.07,2.072-0.298,2.833-1.017c0.759-0.707,1.188-1.699,1.184-2.736V4.588
		c-0.007-2.078-1.694-3.759-3.772-3.759L682.868,0.825z"/>
	<path id="Path_117" fill="#F4AA76" d="M815.148,275.031c-1.283-0.001-2.513-0.51-3.421-1.416L699.86,161.749
		c-0.907-0.903-1.415-2.131-1.412-3.411V4.588c-0.005-1.334,0.547-2.609,1.523-3.518c0.979-0.92,2.295-1.393,3.635-1.307
		c87.081,5.456,155.295,78.143,155.295,165.48c0.001,39.675-14.226,78.035-40.096,108.116c-0.879,1.014-2.139,1.619-3.48,1.671
		C815.267,275.03,815.207,275.031,815.148,275.031z"/>
	<path id="Path_118" fill="#F57921" d="M703.295,330.729c-1.235-0.001-2.423-0.471-3.325-1.315c-0.977-0.91-1.53-2.186-1.525-3.522
		V187.173c0-2.667,2.163-4.83,4.83-4.83c1.281,0,2.509,0.509,3.414,1.414l97.616,97.618c1.889,1.891,1.887,4.955-0.004,6.844
		c-0.058,0.058-0.117,0.114-0.178,0.169c-27.792,25.021-63.211,39.935-100.529,42.332
		C703.495,330.727,703.394,330.729,703.295,330.729z"/>
	<path id="Path_119" fill="#FFFFFF" d="M961.629,333.81c-15.662,27.773-37.773,52.27-63.092,71.687
		c-56.266,43.15-127.531,66.55-197.836,71.459c-36.131,2.54-72.441,0.074-107.897-7.328c-36.072-7.556-70.478-20.867-103.799-36.414
		c-33.926-15.833-66.813-33.789-100.591-49.918c-33.746-16.119-68.423-29.862-104.757-38.858c2.66-0.468,5.24-0.981,7.751-1.564
		c2.374,0.617,4.741,1.256,7.1,1.918c71.048,19.863,133.753,59.005,200.462,89.244c33.458,15.171,68.091,27.545,104.312,34.166
		c36.139,6.56,73.021,8.003,109.562,4.289c70.113-7.055,141.438-32.921,195.337-79.199c21.336-18.237,39.115-40.262,52.442-64.964
		C960.988,330.154,961.323,331.982,961.629,333.81z"/>
	<path id="Path_120" fill="#FFFFFF" d="M256.272,577.659c69.998,19.566,131.892,57.85,197.506,87.885
		c-0.674,0.948-1.347,1.895-2.032,2.843c-1.667-0.765-3.322-1.53-4.977-2.306c-33.926-15.833-66.813-33.789-100.591-49.918
		c-34.462-16.461-69.896-30.444-107.074-39.428c-51.392-12.379-104.481-16.155-157.108-11.175c-0.126-1.144-0.239-2.294-0.343-3.436
		C140.32,556.585,199.505,561.851,256.272,577.659z"/>
	<path id="Path_121" fill="#FFFFFF" d="M537.612,687.8H39.803c-0.722,0-1.307-0.585-1.307-1.307c0-0.722,0.585-1.307,1.307-1.307
		h497.81c0.722,0,1.307,0.585,1.307,1.307C538.92,687.215,538.335,687.8,537.612,687.8z"/>
	<circle id="Ellipse_40" fill="#FCE2CF" cx="241.172" cy="479.446" r="32.091"/>
	<path id="Path_122" fill="#FCE2CF" d="M361.248,705.885l0.748,16.002l-61.363,10.505l-1.106-23.614L361.248,705.885z"/>
	<path id="Path_123" fill="#3F67C9" d="M376.566,701.078l1.704,36.376l-0.654,0.031c-5.041,0.332-10.063-0.883-14.395-3.482
		c-3.917-2.496-6.173-5.954-6.35-9.736l0,0l-1.04-22.217L376.566,701.078z"/>
	<path id="Path_124" fill="#FCE2CF" d="M359.53,732.215h16.015l7.62-61.786h-23.642L359.53,732.215z"/>
	<path id="Path_125" fill="#3F67C9" d="M355.446,726.984h31.546l0,0c11.101,0,20.1,8.999,20.1,20.1v0.654h-51.65L355.446,726.984z"
		/>
	<path id="Path_126" fill="#FFDCC3" d="M208.303,717.248c6.63-4.016,8.749-12.647,4.733-19.277
		c-0.428-0.707-0.919-1.375-1.465-1.996l12.785-127.201l-30.453,2.129l-2.991,124.366c-5.5,5.522-5.481,14.458,0.041,19.957
		C195.575,719.827,202.748,720.663,208.303,717.248L208.303,717.248z"/>
	<path id="Path_127" fill="#FFFFFF" d="M224.206,590.821l-31.553-3.845c-3.45-0.417-5.908-3.551-5.491-7.001
		c0.037-0.309,0.098-0.615,0.18-0.915l8.402-30.559c1.196-9.579,9.93-16.375,19.509-15.179c9.579,1.196,16.375,9.93,15.179,19.509
		l0.823,31.576c0.091,3.474-2.652,6.363-6.125,6.454c-0.31,0.008-0.62-0.007-0.928-0.044L224.206,590.821z"/>
	<path id="Path_128" fill="#002173" d="M219.794,735.267c-11.995-0.822-21.053-11.213-20.231-23.208
		c0.264-3.855,1.55-7.571,3.725-10.765l20.607-21.396l75.129-67.289l40.165-33.329c7.644-6.343,18.982-5.289,25.325,2.355
		c1.731,2.086,2.969,4.537,3.619,7.17l20.984,84.883c0.73,2.926-0.877,5.929-3.716,6.945l-22.879,8.235
		c-3.058,1.099-6.427-0.49-7.526-3.547c-0.055-0.154-0.104-0.311-0.147-0.469l-8.701-32.631l-48.419,46.288l15.106,5.56
		c2.872,1.07,4.449,4.16,3.628,7.114l-4.878,17.297c-0.691,2.476-2.917,4.212-5.488,4.279L219.794,735.267z"/>
	<path id="Path_129" fill="#FFFFFF" d="M217.741,687.019l-1.987-72.585l-12.537-31.837c-9.7-24.616,2.392-52.435,27.008-62.136
		c2.542-1.002,5.164-1.784,7.839-2.338c1.032-0.214,2.061-0.423,3.087-0.627l0,0c25.948-5.151,51.159,11.709,56.31,37.657
		c0.305,1.534,0.534,3.083,0.687,4.64l5.891,54.645l-0.024,0.105c-9.397,41.781-36.575,64.776-85.542,72.364L217.741,687.019z"/>
	<path id="Path_130" fill="#FFDCC3" d="M247.389,636.599c0.714-0.111,1.437-0.166,2.16-0.163l36.27-53.693l-6.869-14.166
		l20.024-13.155l14.597,23.893c2.422,3.965,1.936,9.053-1.192,12.488l-49.64,54.5c2.12,7.272-2.056,14.886-9.328,17.007
		c-7.272,2.12-14.886-2.056-17.007-9.328c-2.12-7.272,2.056-14.886,9.328-17.007c0.545-0.159,1.1-0.284,1.66-0.374L247.389,636.599z
		"/>
	<path id="Path_131" fill="#FFFFFF" d="M282.644,581.744c-1.647-0.459-3.012-1.614-3.738-3.161l-12.544-26.711
		c-5.012-7.497-2.997-17.638,4.5-22.65c7.497-5.012,17.638-2.997,22.65,4.5l19.819,21.994c2.173,2.415,1.977,6.135-0.438,8.308
		c-0.213,0.191-0.439,0.367-0.677,0.525l-24.735,16.432c-1.424,0.947-3.19,1.226-4.836,0.765L282.644,581.744z"/>
	<path id="Path_132" fill="#FFDCC3" d="M666.811,487.178H560.886c-3.179-0.038-5.726-2.646-5.688-5.825
		c0.037-3.126,2.562-5.651,5.688-5.688h105.925c3.179,0.038,5.726,2.646,5.688,5.825
		C672.462,484.616,669.937,487.141,666.811,487.178z"/>
	<path id="Path_133" fill="#002173" d="M529.224,492.936c-6.679,0-12.093-5.414-12.093-12.093c0-6.679,5.414-12.093,12.093-12.093
		c6.679,0,12.093,5.414,12.093,12.093l0,0C541.317,487.521,535.903,492.936,529.224,492.936z"/>
	<path id="Path_134" fill="#FFDCC3" d="M666.811,521.719H560.886c-3.179,0-5.757-2.577-5.757-5.757c0-3.179,2.577-5.757,5.757-5.757
		h105.925c3.179,0,5.757,2.577,5.757,5.757C672.568,519.142,669.99,521.719,666.811,521.719z"/>
	<path id="Path_135" fill="#002173" d="M529.224,527.476c-6.679,0-12.093-5.414-12.093-12.093c0-6.679,5.414-12.093,12.093-12.093
		c6.679,0,12.093,5.414,12.093,12.093l0,0C541.317,522.062,535.903,527.476,529.224,527.476z"/>
	<path id="Path_136" fill="#FFDCC3" d="M666.811,556.26H560.886c-3.179-0.038-5.726-2.646-5.688-5.825
		c0.037-3.126,2.562-5.651,5.688-5.688h105.925c3.179-0.038,5.787,2.509,5.825,5.688c0.038,3.179-2.509,5.787-5.688,5.825
		C666.902,556.261,666.856,556.261,666.811,556.26z"/>
	<path id="Path_137" fill="#002173" d="M529.224,562.017c-6.679,0-12.093-5.414-12.093-12.093c0-6.679,5.414-12.093,12.093-12.093
		c6.679,0,12.093,5.414,12.093,12.093l0,0C541.317,556.603,535.903,562.017,529.224,562.017z"/>
	<path id="Path_138" fill="#3F3D56" d="M697.24,516.624h43.752c0.636,0,1.151-0.515,1.151-1.151V244.995
		c0.001-0.636-0.513-1.152-1.149-1.154c-0.636-0.001-1.152,0.513-1.154,1.149c0,0.002,0,0.003,0,0.005v269.326H697.24
		c-0.636-0.001-1.152,0.513-1.154,1.149c-0.001,0.636,0.513,1.152,1.149,1.154C697.237,516.624,697.238,516.624,697.24,516.624z"/>
	<path id="Path_139" fill="#FFFFFF" d="M884.721,84.557L884.721,84.557c-8.169,0.658-15.326-5.431-15.984-13.6
		s5.431-15.326,13.6-15.984c8.169-0.658,15.326,5.431,15.984,13.6c0,0,0,0,0,0.001C898.979,76.743,892.89,83.899,884.721,84.557z
		 M884.537,82.282L884.537,82.282c6.913-0.557,12.065-6.612,11.508-13.525c-0.557-6.913-6.612-12.065-13.524-11.509
		s-12.065,6.612-11.509,13.525c0,0,0,0,0,0.001C871.57,77.686,877.625,82.838,884.537,82.282z"/>
	<circle id="Ellipse_41" fill="#FFFFFF" cx="935.819" cy="37.347" r="9.132"/>
	<circle id="Ellipse_42" fill="#FFFFFF" cx="980.707" cy="8.656" r="4.797"/>
	<path id="Path_140" fill="#CCCCCC" d="M814.992,376.649c-4.518,6.838-13.724,8.718-20.562,4.2
		c-6.838-4.518-8.719-13.724-4.2-20.562c4.518-6.838,13.724-8.718,20.562-4.2c0,0,0,0,0,0l0,0
		C817.622,360.611,819.501,369.809,814.992,376.649z M792.132,361.546c-3.823,5.786-2.232,13.576,3.554,17.399
		c5.786,3.823,13.576,2.232,17.399-3.554c3.822-5.784,2.233-13.571-3.549-17.396l0,0c-5.788-3.814-13.571-2.224-17.398,3.554
		L792.132,361.546z"/>
	<circle id="Ellipse_43" fill="#CCCCCC" cx="832.77" cy="422.093" r="9.132"/>
	<circle id="Ellipse_44" fill="#CCCCCC" cx="858.244" cy="468.882" r="4.797"/>
	<path id="Path_141" fill="#CCCCCC" d="M446.513,127.412c-3.647-7.34-0.654-16.246,6.685-19.894
		c7.34-3.647,16.246-0.655,19.894,6.685c3.647,7.34,0.655,16.246-6.685,19.894c0,0-0.001,0-0.001,0l0,0
		C459.065,137.735,450.166,134.744,446.513,127.412z M471.047,115.22c-3.086-6.211-10.622-8.744-16.833-5.658
		c-6.211,3.086-8.744,10.622-5.658,16.833c3.086,6.211,10.622,8.744,16.833,5.658c0.001,0,0.001-0.001,0.001-0.001l0,0
		C471.593,128.961,474.124,121.431,471.047,115.22L471.047,115.22z"/>
	<circle id="Ellipse_45" fill="#FFFFFF" cx="398.283" cy="119.986" r="9.132"/>
	<circle id="Ellipse_46" fill="#FFFFFF" cx="345.03" cy="118.54" r="4.797"/>
	<path id="Path_142" fill="#002173" d="M275.085,482.254l-1.337-3.407c-3.69-9.406-12.515-16.635-21.958-17.991
		c-9.616-1.257-19.096,3.139-24.349,11.291c-2.184,3.79-3.909,7.826-5.137,12.024c-0.421,1.25-0.845,2.155-1.66,2.428
		c-0.918,0.327-1.831-0.235-3.344-1.173c-0.982-0.609-2.272-0.305-2.881,0.677c-0.256,0.413-0.36,0.903-0.294,1.385l1.587,11.327
		l-1.328-1.181c-8.64-7.69-10.415-22.161-4.174-31.343L196,469.205l0.64-1.221c5.899-11.386,16.067-19.973,28.28-23.884
		l-13.606-2.996l1.375-0.847c12.184-7.506,28.258-7.294,40.948,0.526c12.94,8.29,20.941,22.445,21.37,37.807L275.085,482.254z"/>
</g>
</svg>
