<svg xmlns="http://www.w3.org/2000/svg" width="199.038" height="317.5" viewBox="0 0 199.038 317.5">
  <g id="modal" transform="translate(-22.499 30)">
    <path id="Path_243" data-name="Path 243" d="M400.05,254.145q0,2.45.159,4.859a73.6,73.6,0,0,0,6.9,26.722c.031.072.067.138.1.2.185.389.374.778.569,1.162a72.71,72.71,0,0,0,3.917,6.912,73.967,73.967,0,0,0,60.7,34.162l-.732,42.108-9.549-5.028-1.705,3.241,11.182,5.888-1.367,78.205-.015,1.045,7.383.62-.015-.026L475.25,328.172a73.82,73.82,0,0,0,52.226-22.723c.466-.481.927-.978,1.377-1.469.021-.021.036-.041.051-.056a74.122,74.122,0,0,0,13.486-20.87c-.072.082-.148.159-.22.241a74.059,74.059,0,0,0-35.114-95.43c-.256-.128-.517-.251-.773-.379a74.116,74.116,0,0,0-96.019,29.149c-.451.758-.886,1.531-1.306,2.309A73.656,73.656,0,0,0,400.05,254.145Z" transform="translate(-334.553 -175.019)" fill="#e5e5e5"/>
    <ellipse id="Ellipse_105" data-name="Ellipse 105" cx="22.051" cy="22.051" rx="22.051" ry="22.051" transform="translate(97.96 235.297)" fill="#002173"/>
    <rect id="Rectangle_311" data-name="Rectangle 311" width="19.755" height="6.699" transform="translate(93.949 272.507)" fill="#002173"/>
    <ellipse id="Ellipse_106" data-name="Ellipse 106" cx="2.093" cy="5.583" rx="2.093" ry="5.583" transform="translate(91.716 268.04)" fill="#002173"/>
    <rect id="Rectangle_312" data-name="Rectangle 312" width="19.755" height="6.699" transform="translate(98.557 271.995)" fill="#002173"/>
    <ellipse id="Ellipse_107" data-name="Ellipse 107" cx="2.093" cy="5.583" rx="2.093" ry="5.583" transform="translate(96.324 267.528)" fill="#002173"/>
    <path id="Path_244" data-name="Path 244" d="M572.608,615.145c1.781-7.974-3.911-16.031-12.713-18s-17.38,2.906-19.161,10.88,4.053,10.915,12.854,12.88S570.827,623.119,572.608,615.145Z" transform="translate(-431.205 -378.303)" fill="#f57921"/>
    <path id="Path_245" data-name="Path 245" d="M594.921,663.035a5.5,5.5,0,0,0,5.294-3.647.512.512,0,0,0-.971-.326,4.619,4.619,0,0,1-5.916,2.69,4.92,4.92,0,0,1-2.853-2.431,4.215,4.215,0,0,1-.249-3.245.512.512,0,0,0-.971-.326,5.231,5.231,0,0,0,.3,4.029,5.951,5.951,0,0,0,3.447,2.945A6.08,6.08,0,0,0,594.921,663.035Z" transform="translate(-483.384 -406.942)" fill="#fff"/>
    <path id="Path_246" data-name="Path 246" d="M601.248,674.537A4.9,4.9,0,0,0,609.975,679h0l0-.009c1.23-2.411-.47-3.908-2.881-5.138S602.478,672.125,601.248,674.537Z" transform="translate(-499.534 -415.447)" fill="#fff"/>
    <path id="Path_247" data-name="Path 247" d="M390.788,715.243H585.867a.512.512,0,1,0,0-1.024H390.788a.512.512,0,1,0,0,1.024Z" transform="translate(-367.777 -435.644)"/>
    <ellipse id="Ellipse_108" data-name="Ellipse 108" cx="3.84" cy="12.233" rx="3.84" ry="12.233" transform="translate(128.662 287.5) rotate(-165.539)" fill="#002173"/>
    <path id="Path_248" data-name="Path 248" d="M628.746,613.427h8.39a.4.4,0,0,0,.266-.689l-7.629-6.909h7.049a.4.4,0,0,0,0-.791h-8.075a.4.4,0,0,0-.266.689l7.629,6.91h-7.363a.4.4,0,0,0,0,.791Z" transform="translate(-540.828 -382.365)" fill="#cbcbcb"/>
    <path id="Path_249" data-name="Path 249" d="M649.61,589.473H658a.4.4,0,0,0,.266-.689l-7.629-6.91h7.049a.4.4,0,0,0,0-.791H649.61a.4.4,0,0,0-.266.689l7.629,6.91H649.61a.4.4,0,0,0,0,.791Z" transform="translate(-572.375 -370.676)" fill="#cbcbcb"/>
    <path id="Path_250" data-name="Path 250" d="M640.337,563.2h8.39a.4.4,0,0,0,.266-.689l-7.629-6.91h7.049a.4.4,0,1,0,0-.791h-8.075a.4.4,0,0,0-.266.689l7.629,6.91h-7.364a.4.4,0,1,0,0,.791Z" transform="translate(-558.354 -357.855)" fill="#cbcbcb"/>
    <path id="Path_252" data-name="Path 252" d="M391.094,175.459l-6.551-5.239c5.089-.561,7.18,2.214,8.036,4.411,3.976-1.651,8.3.513,8.3.513L387.776,179.9A9.919,9.919,0,0,1,391.094,175.459Z" transform="translate(-179.346 -170.146)" fill="#f57921"/>
    <path id="Path_253" data-name="Path 253" d="M391.094,175.459l-6.551-5.239c5.089-.561,7.18,2.214,8.036,4.411,3.976-1.651,8.3.513,8.3.513L387.776,179.9A9.919,9.919,0,0,1,391.094,175.459Z" transform="translate(-199.346 -200.146)" fill="#f57921"/>
    <path id="Path_254" data-name="Path 254" d="M391.094,175.459l-6.551-5.239c5.089-.561,7.18,2.214,8.036,4.411,3.976-1.651,8.3.513,8.3.513L387.776,179.9A9.919,9.919,0,0,1,391.094,175.459Z" transform="translate(-319.346 -170.146)" fill="#f57921"/>
  </g>
</svg>
