<svg xmlns="http://www.w3.org/2000/svg" width="22" height="24.316" viewBox="0 0 22 24.316">
  <g id="account" transform="translate(-3 -1.5)" fill="none">
    <path d="M5.316,11.921v8.105H8.789V11.921Zm6.947,0v8.105h3.474V11.921ZM3,25.816H25V22.342H3ZM19.211,11.921v8.105h3.474V11.921ZM14,1.5,3,7.289V9.605H25V7.289Z" stroke="none"/>
    <path d="M 13.99999904632568 2.630046844482422 L 3.999998092651367 7.893211364746094 L 3.999998092651367 8.605264663696289 L 24 8.605264663696289 L 24 7.893211364746094 L 13.99999904632568 2.630046844482422 M 6.315788269042969 12.92105484008789 L 6.315788269042969 19.02631378173828 L 7.789468765258789 19.02631378173828 L 7.789468765258789 12.92105484008789 L 6.315788269042969 12.92105484008789 M 13.26315879821777 12.92105484008789 L 13.26315879821777 19.02631378173828 L 14.73683929443359 19.02631378173828 L 14.73683929443359 12.92105484008789 L 13.26315879821777 12.92105484008789 M 20.21052932739258 12.92105484008789 L 20.21052932739258 19.02631378173828 L 21.68420791625977 19.02631378173828 L 21.68420791625977 12.92105484008789 L 20.21052932739258 12.92105484008789 M 3.999998092651367 23.34210586547852 L 3.999998092651367 24.8157844543457 L 24 24.8157844543457 L 24 23.34210586547852 L 3.999998092651367 23.34210586547852 M 13.99999904632568 1.499994277954102 L 25 7.289474487304688 L 25 9.605264663696289 L 2.999998092651367 9.605264663696289 L 2.999998092651367 7.289474487304688 L 13.99999904632568 1.499994277954102 Z M 5.315788269042969 11.92105484008789 L 8.789468765258789 11.92105484008789 L 8.789468765258789 20.02631568908691 L 5.315788269042969 20.02631568908691 L 5.315788269042969 11.92105484008789 Z M 12.26315879821777 11.92105484008789 L 15.73683929443359 11.92105484008789 L 15.73683929443359 20.02631568908691 L 12.26315879821777 20.02631568908691 L 12.26315879821777 11.92105484008789 Z M 19.21052932739258 11.92105484008789 L 22.68420791625977 11.92105484008789 L 22.68420791625977 20.02631568908691 L 19.21052932739258 20.02631568908691 L 19.21052932739258 11.92105484008789 Z M 2.999998092651367 22.34210586547852 L 25 22.34210586547852 L 25 25.8157844543457 L 2.999998092651367 25.8157844543457 L 2.999998092651367 22.34210586547852 Z" stroke="none" fill="#000"/>
  </g>
</svg>
