<svg xmlns="http://www.w3.org/2000/svg" width="22" height="22" viewBox="0 0 22 22">
  <path id="addField" d="M24.992,14.093V22.1A2.894,2.894,0,0,1,22.1,24.992H14.093a.589.589,0,0,1-.193,0H5.894A2.894,2.894,0,0,1,3,22.1V5.894A2.894,2.894,0,0,1,5.894,3H22.1a2.894,2.894,0,0,1,2.894,2.894V13.9a.589.589,0,0,1,0,.193ZM4.157,13.417h9.26V4.157H5.894A1.736,1.736,0,0,0,4.157,5.894Zm0,1.157V22.1a1.736,1.736,0,0,0,1.736,1.736h7.524v-9.26Zm19.677-1.157V5.894A1.736,1.736,0,0,0,22.1,4.157H14.575v9.26Zm0,1.157h-9.26v9.26H22.1A1.736,1.736,0,0,0,23.835,22.1Z" transform="translate(-3 -3)" fill="#002173"/>
</svg>
