<svg xmlns="http://www.w3.org/2000/svg" width="22" height="22" viewBox="0 0 22 22">
  <path id="dashboard" d="M3,6.056A3.056,3.056,0,0,1,6.056,3H9.722a3.056,3.056,0,0,1,3.056,3.056V9.722a3.056,3.056,0,0,1-3.056,3.056H6.056A3.056,3.056,0,0,1,3,9.722Zm1.222,0V9.722a1.833,1.833,0,0,0,1.833,1.833H9.722a1.833,1.833,0,0,0,1.833-1.833V6.056A1.833,1.833,0,0,0,9.722,4.222H6.056A1.833,1.833,0,0,0,4.222,6.056Zm11,0A3.056,3.056,0,0,1,18.278,3h3.667A3.056,3.056,0,0,1,25,6.056V9.722a3.056,3.056,0,0,1-3.056,3.056H18.278a3.056,3.056,0,0,1-3.056-3.056Zm1.222,0V9.722a1.833,1.833,0,0,0,1.833,1.833h3.667a1.833,1.833,0,0,0,1.833-1.833V6.056a1.833,1.833,0,0,0-1.833-1.833H18.278A1.833,1.833,0,0,0,16.444,6.056ZM3,18.278a3.056,3.056,0,0,1,3.056-3.056H9.722a3.056,3.056,0,0,1,3.056,3.056v3.667A3.056,3.056,0,0,1,9.722,25H6.056A3.056,3.056,0,0,1,3,21.944Zm1.222,0v3.667a1.833,1.833,0,0,0,1.833,1.833H9.722a1.833,1.833,0,0,0,1.833-1.833V18.278a1.833,1.833,0,0,0-1.833-1.833H6.056A1.833,1.833,0,0,0,4.222,18.278Zm11,0a3.056,3.056,0,0,1,3.056-3.056h3.667A3.056,3.056,0,0,1,25,18.278v3.667A3.056,3.056,0,0,1,21.944,25H18.278a3.056,3.056,0,0,1-3.056-3.056Zm1.222,0v3.667a1.833,1.833,0,0,0,1.833,1.833h3.667a1.833,1.833,0,0,0,1.833-1.833V18.278a1.833,1.833,0,0,0-1.833-1.833H18.278A1.833,1.833,0,0,0,16.444,18.278Z" transform="translate(-3 -3)" fill="#f57921"/>
</svg>
