<svg xmlns="http://www.w3.org/2000/svg" width="16.394" height="11.522" viewBox="0 0 16.394 11.522">
  <g id="delivery-truck" transform="translate(0 0)">
    <path id="Path_119" data-name="Path 119" d="M.575,98.616V91.641a.7.7,0,0,1,.7-.7H8.248a.7.7,0,0,1,.7.7v6.975a.234.234,0,0,1-.234.234H.809A.234.234,0,0,1,.575,98.616Zm5.63,2.389A1.456,1.456,0,1,1,4.749,99.55,1.456,1.456,0,0,1,6.2,101.005Zm-.728,0a.728.728,0,1,0-.728.728A.728.728,0,0,0,5.477,101.005ZM3.5,99.55H.234A.234.234,0,0,0,0,99.784v.71a.234.234,0,0,0,.234.234H2.848A1.92,1.92,0,0,1,3.5,99.55Zm10.325,1.456a1.456,1.456,0,1,1-1.456-1.456A1.456,1.456,0,0,1,13.821,101.005Zm-.728,0a.728.728,0,1,0-.728.728A.728.728,0,0,0,13.093,101.005Zm3.3-1.222v.71a.234.234,0,0,1-.234.234H14.266a1.921,1.921,0,0,0-3.8,0H6.65A1.92,1.92,0,0,0,6,99.55H9.619V92.858a.468.468,0,0,1,.468-.468H12.3a1.871,1.871,0,0,1,1.551.824l1.424,2.109a1.872,1.872,0,0,1,.32,1.047V99.55h.569A.234.234,0,0,1,16.394,99.784Zm-2.373-4.406L12.882,93.76a.234.234,0,0,0-.191-.1H10.915a.234.234,0,0,0-.234.234v1.618a.234.234,0,0,0,.234.234h2.914A.234.234,0,0,0,14.021,95.378Z" transform="translate(0 -90.939)" fill="#f57921"/>
  </g>
</svg>
