<svg xmlns="http://www.w3.org/2000/svg" width="25.243" height="25.243" viewBox="0 0 25.243 25.243">
  <g id="edit" transform="translate(0 -0.004)">
    <g id="Group_270" data-name="Group 270" transform="translate(0 1.807)">
      <g id="Group_269" data-name="Group 269">
        <path id="Path_92" data-name="Path 92" d="M20.735,44.955a.9.9,0,0,0-.9.9v9.015a.9.9,0,0,1-.9.9H2.7a.9.9,0,0,1-.9-.9V36.842a.9.9,0,0,1,.9-.9H13.523a.9.9,0,1,0,0-1.8H2.7a2.7,2.7,0,0,0-2.7,2.7v18.03a2.7,2.7,0,0,0,2.7,2.7H18.932a2.7,2.7,0,0,0,2.7-2.7V45.857A.9.9,0,0,0,20.735,44.955Z" transform="translate(0 -34.137)" fill="#f57921"/>
      </g>
    </g>
    <g id="Group_272" data-name="Group 272" transform="translate(5.41 0.004)">
      <g id="Group_271" data-name="Group 271" transform="translate(0 0)">
        <path id="Path_93" data-name="Path 93" d="M121.231,1.015a3.451,3.451,0,0,0-4.881,0L104.475,12.889a.911.911,0,0,0-.217.352l-1.8,5.409a.9.9,0,0,0,.855,1.186.916.916,0,0,0,.285-.046l5.409-1.8a.9.9,0,0,0,.353-.218L121.231,5.9A3.451,3.451,0,0,0,121.231,1.015Z" transform="translate(-102.409 -0.004)" fill="#f57921"/>
      </g>
    </g>
  </g>
</svg>
