<svg xmlns="http://www.w3.org/2000/svg" width="22" height="19.548" viewBox="0 0 22 19.548">
  <path id="inventory" d="M21.937,10.109a1.835,1.835,0,0,0,1.842-1.833V7.054a1.833,1.833,0,0,0-1.833-1.833H6.054A1.833,1.833,0,0,0,4.222,7.054V8.276a1.833,1.833,0,0,0,1.833,1.833ZM3,19.271a3.054,3.054,0,0,1,3.054-3.054H21.946A3.054,3.054,0,0,1,25,19.271v1.222a3.054,3.054,0,0,1-3.054,3.054H6.054A3.054,3.054,0,0,1,3,20.493Zm1.221-8.552A3.05,3.05,0,0,1,3,8.276V7.054A3.054,3.054,0,0,1,6.054,4H21.946A3.054,3.054,0,0,1,25,7.054V8.276a3.05,3.05,0,0,1-1.221,2.443A3.05,3.05,0,0,1,25,13.163v1.222a3.054,3.054,0,0,1-3.054,3.054.611.611,0,1,1-.009-1.222,1.835,1.835,0,0,0,1.842-1.833V13.163a1.833,1.833,0,0,0-1.833-1.833H6.054a1.833,1.833,0,0,0-1.833,1.833v1.222a1.833,1.833,0,0,0,1.833,1.833.611.611,0,1,1,0,1.222A3.054,3.054,0,0,1,3,14.385V13.163A3.05,3.05,0,0,1,4.221,10.719Zm0,8.552v1.222a1.833,1.833,0,0,0,1.833,1.833H21.946a1.833,1.833,0,0,0,1.833-1.833V19.271a1.833,1.833,0,0,0-1.833-1.833H6.054A1.833,1.833,0,0,0,4.222,19.271ZM6.054,8.887a.611.611,0,0,1,0-1.222H8.5a.611.611,0,0,1,0,1.222Zm0,6.109a.611.611,0,0,1,0-1.222H8.5A.611.611,0,0,1,8.5,15Zm0,6.109a.611.611,0,1,1,0-1.222H8.5a.611.611,0,1,1,0,1.222Z" transform="translate(-3 -4)"/>
</svg>
