<svg id="notification" xmlns="http://www.w3.org/2000/svg" width="25.599" height="27.926" viewBox="0 0 25.599 27.926">
  <g id="notification-2" data-name="notification">
    <path id="Path_48" data-name="Path 48" d="M139.557,451.75A4.7,4.7,0,0,0,144.15,448h-9.185a4.7,4.7,0,0,0,4.593,3.75Zm0,0" transform="translate(-127.878 -423.824)" fill="#002173"/>
    <path id="Path_49" data-name="Path 49" d="M19.647,55.166h-.014c-4.457,0-8.084-3.925-8.084-8.75a9.27,9.27,0,0,1,.773-3.708,7.56,7.56,0,0,0-.773-.042c-4.465,0-8.084,3.917-8.084,8.75V54.9A8.678,8.678,0,0,1,.706,61.319a2.3,2.3,0,0,0-.635,2.245,2.14,2.14,0,0,0,2.077,1.6h18.8a2.151,2.151,0,0,0,2.111-1.734,2.3,2.3,0,0,0-.689-2.14,8.6,8.6,0,0,1-2.719-6.127Zm0,0" transform="translate(0.001 -40.168)" fill="#002173"/>
    <path id="Path_50" data-name="Path 50" d="M268.512,6.25A6.25,6.25,0,1,1,262.262,0,6.25,6.25,0,0,1,268.512,6.25Zm0,0" transform="translate(-242.913)" fill="#f57921"/>
  </g>
</svg>
