<svg xmlns="http://www.w3.org/2000/svg" width="27.676" height="27.676" viewBox="0 0 27.676 27.676">
  <g id="setting" transform="translate(0 0)">
    <path id="gear" d="M27.024,10.686,24.9,10.224a11.576,11.576,0,0,0-.685-1.651L25.39,6.742a.827.827,0,0,0-.111-1.032L21.966,2.4a.827.827,0,0,0-1.032-.111L19.1,3.463a11.576,11.576,0,0,0-1.651-.685L16.989.651A.827.827,0,0,0,16.181,0H11.495a.827.827,0,0,0-.808.651l-.462,2.127a11.576,11.576,0,0,0-1.651.685L6.742,2.285A.827.827,0,0,0,5.71,2.4L2.4,5.71a.827.827,0,0,0-.111,1.032L3.463,8.573a11.576,11.576,0,0,0-.685,1.651l-2.127.462A.827.827,0,0,0,0,11.495v4.686a.827.827,0,0,0,.651.808l2.127.462A11.576,11.576,0,0,0,3.463,19.1L2.285,20.934A.827.827,0,0,0,2.4,21.966L5.71,25.279a.827.827,0,0,0,1.032.111l1.832-1.178a11.576,11.576,0,0,0,1.651.685l.462,2.127a.827.827,0,0,0,.808.651h4.686a.827.827,0,0,0,.808-.651l.462-2.127a11.576,11.576,0,0,0,1.651-.685l1.832,1.178a.827.827,0,0,0,1.032-.111l3.314-3.314a.827.827,0,0,0,.111-1.032L24.213,19.1a11.577,11.577,0,0,0,.685-1.651l2.127-.462a.827.827,0,0,0,.651-.808V11.495A.827.827,0,0,0,27.024,10.686ZM18.8,13.838a4.962,4.962,0,1,1-4.962-4.962A4.967,4.967,0,0,1,18.8,13.838Zm0,0" transform="translate(0 0)" fill="#002173"/>
  </g>
</svg>
