<svg xmlns="http://www.w3.org/2000/svg" width="25.912" height="19.743" viewBox="0 0 25.912 19.743">
  <path id="Icon_metro-flow-branch" data-name="Icon metro-flow-branch" d="M19.743,3.7a3.7,3.7,0,1,0-5.269,3.342c-.126,2.443-1.959,3.273-5.144,4.467a20.135,20.135,0,0,0-4.086,1.9V7.058a3.7,3.7,0,1,0-3.085,0v11.8a3.7,3.7,0,1,0,3.11.012C5.4,16.426,7.229,15.6,10.413,14.4c3.131-1.175,7-2.639,7.157-7.336A3.7,3.7,0,0,0,19.743,3.7ZM3.7,1.566A2.136,2.136,0,1,1,1.567,3.7,2.135,2.135,0,0,1,3.7,1.566Zm0,22.781A2.136,2.136,0,1,1,5.837,22.21,2.136,2.136,0,0,1,3.7,24.347ZM16.041,5.838A2.136,2.136,0,1,1,18.176,3.7a2.136,2.136,0,0,1-2.135,2.136Z" transform="translate(25.912) rotate(90)" fill="#f57921"/>
</svg>
