<?xml version="1.0" encoding="utf-8"?>
<!-- Generator: Adobe Illustrator 25.2.0, SVG Export Plug-In . SVG Version: 6.00 Build 0)  -->
<svg version="1.1" id="Layer_1" xmlns="http://www.w3.org/2000/svg" xmlns:xlink="http://www.w3.org/1999/xlink" x="0px" y="0px"
	 viewBox="0 0 192 192" enable-background="new 0 0 192 192" xml:space="preserve">
<g>
	<image overflow="visible" opacity="0.15" width="216" height="168" xlink:href="A3EF6B07.png"  transform="matrix(1 0 0 1 -5 19)">
	</image>
	<g>
		<g>
			<path fill="#002173" d="M14.582,46.248c-2.678,4.053-4.917,8.406-6.727,12.896c-0.423,1.048-1.067,1.76-1.652,1.94
				c-0.267,0.082-0.525,0.053-0.751-0.106c-0.387-0.271-0.606-0.868-0.65-1.599C7.205,54.688,10.503,50.222,14.582,46.248z"/>
			<path fill="#002173" d="M4.883,67.885c-1.142,4.049-1.982,8.099-2.61,12.089c-0.498-1.39-0.954-2.733-1.383-4.033
				c0.388-3.193,0.92-6.43,1.653-9.678c0.337-1.529,1.182-2.437,1.881-2.001C5.122,64.697,5.327,66.333,4.883,67.885z"/>
			<path fill="#002173" d="M43.859,29.743c-3.014,1.709-5.944,3.717-8.738,5.99c-0.745,0.606-1.637,0.986-2.426,1.077
				c-0.615,0.071-1.173-0.032-1.556-0.333c-0.467-0.363-0.586-0.939-0.397-1.549C34.918,32.838,39.34,31.118,43.859,29.743z"/>
			<path fill="#002173" d="M5.907,81.552c0.186,0.134,0.387,0.18,0.591,0.149c0.603-0.091,1.246-0.873,1.579-2.081
				c3.58-13.252,10.163-26.758,19.921-37.202c1.183-1.278,1.388-2.806,0.446-3.449c-0.941-0.644-2.663-0.199-3.824,1.036
				C14.667,50.513,8.402,64.388,5.285,77.772C4.916,79.347,5.176,81.02,5.907,81.552z"/>
			<path fill="#002173" d="M191.11,71.076c-0.005,1.158-0.019,2.311-0.043,3.459c-0.051,0.283-0.115,0.542-0.193,0.772
				c-0.636,1.862-1.327,3.809-2.113,5.853c0.315-6.118,0.268-12.22-0.323-18.434c1.04,2.422,1.86,4.882,2.48,7.346
				C191,70.396,191.063,70.733,191.11,71.076z"/>
			<path fill="#002173" d="M71.63,24.908C42.24,30.575,15.531,66.086,11.133,99.276c-1.022-1.811-1.968-3.583-2.842-5.311
				c4.294-28.032,23.99-58.716,49.948-67.511C62.73,25.727,67.203,25.242,71.63,24.908z"/>
			<path fill="#002173" d="M183.74,92.526c-7.955,16.318-24.227,37.926-42.969,54.091c1.88-4.774,4.756-9.93,8.47-14.648
				c3.476-4.427,7.381-8.241,11.45-11.125c10.278-7.281,16.692-17.364,19.732-28.367c0.449-1.595,1.584-2.215,2.479-1.43
				C183.286,91.379,183.57,91.909,183.74,92.526z"/>
			<path fill="#002173" d="M185.881,82.398c-0.049,0.585-0.105,1.172-0.166,1.76c-0.138,1.337-0.738,2.181-1.479,2.113
				c-0.14-0.013-0.285-0.06-0.432-0.143c-0.927-0.516-1.584-2.294-1.395-3.935c0.061-0.547,0.118-1.095,0.167-1.644
				c0.981-11.81-0.472-23.852-5.818-34.479c2.702,2.59,5.082,5.391,7.092,8.332C186.167,63.566,186.623,73.002,185.881,82.398z"/>
			<path fill="#002173" d="M95.391,24.154c-0.208,0.029-0.417,0.059-0.623,0.091c-10.348,1.494-22.136,5.449-33.41,13.322
				c-0.728,0.504-1.6,0.794-2.416,0.843c-0.805,0.049-1.55-0.138-2.049-0.56c-1.001-0.858-0.604-2.313,0.842-3.23
				c8.748-5.623,17.855-8.891,26.184-10.316C87.738,24.2,91.545,24.156,95.391,24.154z"/>
			<path fill="#002173" d="M50.588,46.366c-18.059,16.982-29.229,41.826-32.309,64.35c-1.356-1.981-2.637-3.941-3.838-5.869
				c3.454-21.77,14.35-45.609,32.088-61.597c1.341-1.219,3.311-1.521,4.433-0.694C52.082,43.381,51.93,45.084,50.588,46.366z"/>
			<path fill="#002173" d="M131.592,154.021c-0.053,0.039-0.106,0.078-0.158,0.117c0.062-0.096,0.124-0.192,0.176-0.287
				C131.608,153.905,131.594,153.967,131.592,154.021z"/>
			<path fill="#002173" d="M158.182,115.164c-9.728,6.68-18.411,18.286-23.241,29.207c0.514-3.809,0.169-7.708-0.962-11.475
				c5.512-9.332,13.207-18.021,21.476-23.634c1.512-1.026,3.33-0.524,4.062,1.113C160.258,111.989,159.664,114.122,158.182,115.164z
				"/>
			<path fill="#002173" d="M178.531,80.166c-0.836,6.85-2.792,13.372-6.175,19.411c-0.491,0.877-1.241,1.356-2.01,1.373
				c-0.538,0.012-1.083-0.201-1.549-0.665c-1.137-1.12-1.352-3.293-0.47-4.802c3.13-5.365,5.006-11.214,5.8-17.388
				c1.522-12.332-1.228-24.845-8.869-34.763c-10.24-13.445-27.806-17.538-42.818-17.609c-7.622-0.078-14.77,0.487-21.634,2.428
				C80.336,33.346,55.844,51.137,41.712,77.33c-0.962,1.735-2.925,2.411-4.36,1.521c-1.433-0.885-1.813-2.969-0.867-4.672
				c14.436-26.996,40.413-44.547,61.172-48.322c3.475-0.782,6.982-1.229,10.543-1.528c18.824,0.472,40.296,2.892,57.642,13.431
				c1.131,1.142,2.196,2.359,3.192,3.642C177.482,52.477,180.083,66.509,178.531,80.166z"/>
			<path fill="#002173" d="M34.866,91.899c-4.082,10.488-6.484,21.096-7.335,31.147c-1.695-2.076-3.324-4.157-4.877-6.23
				c1.074-9.032,3.315-18.403,6.863-27.683c0.68-1.775,2.418-2.632,3.909-1.883C34.916,87.995,35.573,90.091,34.866,91.899z"/>
			<path fill="#F57921" d="M115.327,164.102c-0.516,0.304-1.063,0.581-1.632,0.842c-0.002-0.027-0.014-0.048-0.017-0.071
				C114.223,164.627,114.773,164.37,115.327,164.102z"/>
			<path fill="#F57921" d="M119.265,162.06c-1.332,0.737-2.646,1.418-3.938,2.042c1.412-0.813,2.692-1.8,3.76-2.961
				C119.139,161.454,119.199,161.759,119.265,162.06z"/>
			<path fill="#002173" d="M169.247,75.997c1.436-10.891-1.219-21.855-7.959-30.628c-9.022-11.8-23.992-16.514-37.61-16.865
				c-6.871-0.186-13.398,0.531-19.501,2.591c-1.46,0.494-1.918,1.681-0.952,2.707c0.963,1.023,3.016,1.422,4.517,0.836
				c5.28-2.026,11.05-2.804,17.068-2.573c11.984,0.471,24.557,5.307,32.274,15.475c5.771,7.604,8.161,16.99,6.85,26.341
				c-1.327,9.347-6.304,17.671-14.587,23.084c-5.885,3.834-11.618,8.936-16.759,14.961c-1.334,1.56-1.251,3.861,0.165,5.118
				c0.64,0.571,1.441,0.832,2.25,0.807c0.979-0.03,1.967-0.48,2.69-1.323c4.566-5.326,9.624-9.873,14.813-13.34
				C162.168,96.709,167.78,86.893,169.247,75.997z"/>
			<path fill="#002173" d="M91.059,43.04c-29.723,17.402-53.263,59.962-52.25,92.661c-2.012-2.071-3.977-4.186-5.88-6.325
				c0.486-33.282,24.503-74.346,54.009-90.363c1.499-0.875,3.593-0.734,4.738,0.333C92.823,40.414,92.576,42.077,91.059,43.04z"/>
			<path fill="#002173" d="M158.239,71.756c-1.159,7.723-5.394,14.529-12.247,18.887c-9.239,5.839-18.004,14.557-24.896,24.595
				c-1.939-1.41-4.03-2.673-6.269-3.753c7.573-11.225,17.349-20.893,27.643-27.215c5.381-3.32,8.774-8.581,9.736-14.629
				c0.958-6.054-0.611-12.176-4.323-17.283c-4.952-6.788-13.012-10.705-21.13-11.113c-4.046-0.193-7.969,0.485-11.459,2.077
				c-5.45,2.498-11.004,5.689-16.387,9.566c-1.534,1.106-3.825,0.905-5.076-0.442c-1.252-1.337-0.995-3.269,0.529-4.299
				c5.654-3.894,11.437-7.011,17.1-9.411c4.401-1.865,9.304-2.632,14.375-2.404c10.135,0.477,20.432,5.024,26.782,13.529
				C157.373,56.255,159.389,64.028,158.239,71.756z"/>
			<path fill="#002173" d="M83.414,66.45C61.755,88.604,49.019,123.173,51.8,146.811c0.039,0.394,0.085,0.784,0.134,1.168
				c-2.284-1.929-4.553-3.951-6.785-6.044C43.4,117.232,56.487,83.504,78.076,61.914c1.395-1.429,3.694-1.589,5.168-0.361
				C84.717,62.782,84.81,64.977,83.414,66.45z"/>
			<path fill="#002173" d="M145.884,67.542c-0.733,4.338-3.226,8.062-7.086,10.374c-11.693,6.944-22.818,17.99-31.136,30.88
				c-2.576-0.71-5.268-1.181-8.041-1.411c9.093-15.12,21.91-28.052,35.371-35.768c2.335-1.344,3.859-3.547,4.331-6.143
				c0.471-2.609-0.166-5.303-1.754-7.618c-3.301-4.736-9.635-6.508-14.384-4.098c-21.582,10.579-43.178,35.146-52.601,61.713
				c-4.979,3.725-8.807,8.451-11.132,13.593c-0.022-0.285-0.011-0.581,0.046-0.865c5.424-32.743,32.669-67.843,59.713-79.844
				c7.823-3.719,18.112-1.006,23.647,6.663C145.522,58.77,146.616,63.2,145.884,67.542z"/>
			<path fill="#F57921" d="M61.38,155.347c-0.706-0.504-1.413-1.02-2.121-1.547c-0.282-1.146-0.515-2.347-0.696-3.601
				C59.296,152.066,60.252,153.785,61.38,155.347z"/>
			<path fill="#002173" d="M131.106,65.457c-15.647,8.595-30.625,24.098-40.364,42.098c-3.388,0.399-6.652,1.184-9.708,2.31
				c10.023-21.704,27.743-40.773,46.125-50.389c1.599-0.847,3.762-0.227,4.849,1.401C133.105,62.504,132.71,64.554,131.106,65.457z"
				/>
			<path fill="#F57921" d="M80.117,165.946c-1.41-0.456-2.741-1.016-3.977-1.702c-0.016-0.019-0.03-0.034-0.045-0.053
				C77.462,164.841,78.804,165.427,80.117,165.946z"/>
			<g>
				<path fill="#F57921" d="M97.306,167.83c-0.553,0.011-1.113,0.016-1.683,0.016c-1.447,0-2.867-0.033-4.269-0.103
					c-0.053-0.043-0.115-0.085-0.169-0.13c1.581,0.064,3.19,0.097,4.818,0.097c0.391,0,0.773-0.002,1.155-0.007
					C97.211,167.747,97.254,167.789,97.306,167.83z"/>
				<path fill="#F57921" d="M103.675,167.448c-0.265,0.03-0.528,0.057-0.79,0.081c-0.007-0.008-0.014-0.018-0.021-0.026
					C103.133,167.487,103.404,167.467,103.675,167.448z"/>
			</g>
			<path fill="#F57921" d="M70.585,115.471c-1.81,4.931-3.213,9.867-4.165,14.654c-0.364,1.794-2.193,2.777-4.087,2.262
				c-1.597-0.451-2.751-1.819-2.881-3.323C61.779,123.922,65.606,119.195,70.585,115.471z"/>
			<path fill="#F57921" d="M90.742,107.554c-4.961,9.054-8.573,18.606-10.527,27.495c-1.162,5.262-1.761,10.286-1.805,14.791
				c-0.007,1.393-1.372,2.348-3.09,2.294c-0.098-0.003-0.184-0.006-0.283-0.017c-1.839-0.166-3.37-1.444-3.415-2.92
				c-0.054-2.197,0.021-4.513,0.232-6.913c0.829-9.975,3.987-21.41,9.179-32.42C84.09,108.739,87.354,107.953,90.742,107.554z"/>
			<path fill="#F57921" d="M97.158,167.704c-0.382,0.005-0.764,0.007-1.155,0.007c-1.627,0-3.237-0.033-4.818-0.097
				c-3.207-2.58-6.312-8.95-5.936-17.205c0.239-5.523,1.34-11.853,3.331-18.422c2.431-8.127,6.201-16.621,11.041-24.602
				c2.773,0.23,5.465,0.702,8.041,1.411c-4.701,7.237-8.493,14.977-11.143,22.484c-2.478,6.995-3.951,13.78-4.43,19.623
				C91.432,158.789,94.388,165.199,97.158,167.704z"/>
			<path fill="#F57921" d="M67.289,159.31c-1.95-1.222-3.925-2.546-5.909-3.963c-1.129-1.562-2.084-3.281-2.817-5.148
				c-0.118-0.822-0.209-1.663-0.285-2.522c-0.116-1.496,1.294-2.572,3.135-2.362c1.854,0.219,3.41,1.671,3.491,3.155
				C65.125,152.635,66,156.282,67.289,159.31z"/>
			<path fill="#F57921" d="M84.615,167.034c-1.56-0.269-3.057-0.625-4.498-1.089c-1.313-0.518-2.656-1.104-4.022-1.755
				c-0.219-0.305-0.439-0.629-0.64-0.966c-0.562-0.876,0.313-1.798,1.981-1.946c1.649-0.146,3.415,0.562,3.889,1.468
				C82.295,164.545,83.42,165.998,84.615,167.034z"/>
			<path fill="#F57921" d="M121.096,115.238c-4.353,6.297-7.956,13.083-10.597,19.664c-2.388,5.944-3.986,11.721-4.797,16.767
				c-0.224,1.348-1.752,2.329-3.48,2.346c-0.098,0.001-0.185-0.006-0.272-0.005c-1.843-0.093-3.201-1.251-3.038-2.687
				c0.689-5.669,2.338-12.237,4.962-18.99c2.704-6.988,6.432-14.173,10.953-20.849C117.066,112.565,119.157,113.828,121.096,115.238
				z"/>
			<path fill="#F57921" d="M119.032,152.145c-0.692,2.88-0.442,6.134,0.055,8.996c-1.068,1.161-2.348,2.148-3.76,2.961
				c-0.554,0.268-1.104,0.525-1.65,0.771c-1.137-3.331-2.204-8.268-1.265-12.93c0.792-3.938,2.071-8.34,3.878-12.938
				c1.279-3.23,2.809-6.556,4.585-9.885c0.931-1.746,3.113-2.563,4.856-1.81c1.733,0.742,2.353,2.74,1.418,4.444
				c-2.576,4.649-4.62,9.285-6.118,13.623C120.206,147.735,119.547,150.007,119.032,152.145z"/>
			<path fill="#F57921" d="M131.915,152.335c-0.133,0.441-0.228,0.938-0.297,1.476c-0.003,0.013-0.006,0.026-0.009,0.039
				c-0.052,0.096-0.114,0.192-0.176,0.287c-2.091,1.55-4.174,3.001-6.233,4.34c-0.183-2.177-0.158-4.389,0.335-6.203
				c1.608-5.885,4.48-12.761,8.443-19.379c1.131,3.767,1.477,7.666,0.962,11.475c-0.001,0.003-0.001,0.006-0.001,0.009
				C133.703,147.129,132.693,149.817,131.915,152.335z"/>
			<path fill="#F57921" d="M108.306,166.705c-1.487,0.333-3.037,0.57-4.622,0.743c-0.003,0-0.006,0-0.009,0
				c-0.271,0.019-0.541,0.038-0.811,0.055c-1.131-1.329-2.324-3.548-3.132-6.353c-0.303-0.988,0.877-2.06,2.649-2.298
				c1.77-0.228,3.415,0.494,3.631,1.535C106.579,162.982,107.458,165.176,108.306,166.705z"/>
		</g>
	</g>
</g>
</svg>
